<svg width="131" height="113" viewBox="0 0 131 113" fill="none" xmlns="http://www.w3.org/2000/svg">
<path d="M12.8086 91.9092C12.8086 94.1546 12.9107 96.0428 12.9617 96.451C13.0128 97.1145 13.1658 97.4207 13.6251 97.4207H13.9824C14.0844 97.4207 14.0844 97.4717 14.0844 97.5227V97.8289C14.0844 97.931 14.0844 97.931 13.9824 97.931C13.8293 97.931 13.0638 97.8799 12.5535 97.8799C12.1962 97.8799 11.3287 97.931 11.1756 97.931C11.1246 97.931 11.0735 97.8799 11.0735 97.8289V97.4717C11.0735 97.4207 11.1246 97.3696 11.1756 97.3696H11.6349C11.9921 97.3696 12.1452 97.0634 12.2473 96.2469C12.2473 95.9918 12.3493 94.1546 12.3493 92.0112V90.3272C12.3493 89.5107 11.89 88.8983 11.3287 88.8983H10.9204C10.8694 88.8983 10.8184 88.8472 10.8184 88.7962V88.439C10.8184 88.3879 10.8694 88.3369 10.9204 88.3369C10.9715 88.3369 11.0735 88.3369 11.3287 88.3879C11.5838 88.3879 11.9411 88.3879 12.5024 88.3879C12.7066 88.3879 12.9107 88.3879 13.0638 88.3369C13.2169 88.3369 13.37 88.3369 13.421 88.3369C13.5741 88.3369 13.6762 88.3879 13.7272 88.439C13.8803 88.5921 16.483 91.8581 16.7381 92.2154C16.9422 92.4195 18.9835 95.0221 19.1877 95.2773H19.2387V93.8994C19.2387 92.7257 19.2387 92.0623 19.1877 91.3989C19.1366 90.8885 19.0856 89.6127 19.0346 89.3576C18.9325 89.0514 18.6263 88.8472 18.3201 88.8472H17.9119C17.8098 88.8472 17.8098 88.7962 17.8098 88.7452V88.439C17.8098 88.3369 17.8098 88.3369 17.9119 88.3369C18.065 88.3369 18.4732 88.3879 19.3918 88.3879C20.2083 88.3879 20.5145 88.3369 20.6676 88.3369C20.7697 88.3369 20.8207 88.3879 20.8207 88.439V88.7452C20.8207 88.8472 20.7697 88.8983 20.7186 88.8983H20.3614C20.1062 88.8983 19.9531 89.1024 19.9021 89.6127C19.8511 90.5313 19.698 92.7767 19.698 94.1036V97.6248C19.698 97.8289 19.698 97.982 19.5449 97.982C19.3408 97.982 19.1877 97.88 19.0856 97.7779C18.9835 97.6248 18.2691 96.8083 17.4526 95.8387C16.534 94.7159 15.4623 93.4401 15.3092 93.236C15.1051 93.0319 13.0127 90.3782 12.8597 90.2251H12.7576V91.9092H12.8086Z" fill="#3C5750"/>
<path d="M23.1684 94.2562C23.0663 94.5624 22.4029 96.4506 22.3519 96.8078C22.3008 96.9099 22.3008 97.012 22.3008 97.063C22.3008 97.2161 22.505 97.3692 22.7601 97.3692H23.3215C23.4235 97.3692 23.4746 97.4202 23.4746 97.4202V97.7775C23.4746 97.8795 23.4235 97.9306 23.3725 97.9306C23.1684 97.9306 22.607 97.8795 21.6884 97.8795C20.7188 97.8795 20.4126 97.9306 20.2085 97.9306C20.1064 97.9306 20.1064 97.8285 20.1064 97.7775V97.5223C20.1064 97.4202 20.1575 97.4202 20.2085 97.4202H20.6168C20.974 97.4202 21.2292 97.2161 21.4843 96.8078C21.6374 96.5527 22.556 94.1542 22.9643 93.0825L24.2911 89.6123C24.3421 89.4592 24.3932 89.2551 24.3421 89.153C24.2911 89.102 24.2401 89.0509 24.2401 88.9999C24.2401 88.9489 24.2911 88.8978 24.3932 88.8468C24.8014 88.7447 25.5669 88.3365 25.72 88.1834C25.8221 88.0813 25.8731 88.0303 25.9241 88.0303C26.0262 88.0303 26.0772 88.1834 26.0772 88.2855C26.3324 89.102 27.353 92.1129 27.6082 92.9294C27.9144 93.95 28.7819 96.4506 28.9861 96.8078C29.2412 97.2671 29.5474 97.4202 29.8536 97.4202H30.2619C30.3639 97.4202 30.3639 97.4713 30.3639 97.5223V97.7775C30.3639 97.8795 30.3129 97.9306 30.2108 97.9306C29.9557 97.9306 29.7005 97.8795 28.2206 97.8795C27.0979 97.8795 26.6386 97.9306 26.3834 97.9306C26.2814 97.9306 26.2303 97.8285 26.2303 97.7775V97.5223C26.2303 97.4202 26.2814 97.4202 26.3324 97.4202H26.6896C27.0468 97.4202 27.1489 97.2671 27.0979 96.9099C26.9958 96.4506 26.4344 94.7155 26.2814 94.2562H23.1684ZM26.1283 93.6949C25.9752 93.2866 25.1076 90.2757 25.0055 90.0205C24.9545 89.8674 24.9035 89.7654 24.8524 89.7654C24.7504 89.7654 24.6994 89.8164 24.6994 89.9185C24.6483 90.0716 23.4746 93.3887 23.3725 93.6438H26.1283V93.6949Z" fill="#3C5750"/>
<path d="M31.8438 91.9092C31.8438 94.1546 31.9458 96.0428 31.9969 96.451C32.0479 97.1145 32.201 97.4207 32.6603 97.4207H33.0175C33.1196 97.4207 33.1196 97.4717 33.1196 97.5227V97.8289C33.1196 97.931 33.1196 97.931 33.0175 97.931C32.8644 97.931 32.0989 97.8799 31.5886 97.8799C31.2314 97.8799 30.3128 97.931 30.2107 97.931C30.1597 97.931 30.1087 97.8799 30.1087 97.8289V97.4717C30.1087 97.4207 30.1597 97.3696 30.2107 97.3696H30.67C31.0273 97.3696 31.1804 97.0634 31.2824 96.2469C31.2824 95.9918 31.3845 94.1546 31.3845 92.0112V90.3272C31.3845 89.5107 30.9252 88.8983 30.3638 88.8983H29.9556C29.9045 88.8983 29.8535 88.8472 29.8535 88.7962V88.439C29.8535 88.3879 29.9045 88.3369 29.9556 88.3369C30.0066 88.3369 30.1087 88.3369 30.3638 88.3879C30.619 88.3879 30.9762 88.3879 31.5376 88.3879C31.7417 88.3879 31.9458 88.3879 32.0989 88.3369C32.252 88.3369 32.4051 88.3369 32.4562 88.3369C32.6093 88.3369 32.7113 88.3879 32.7624 88.439C32.9155 88.5921 35.5181 91.8581 35.7733 92.2154C35.9774 92.4195 38.0187 95.0221 38.2228 95.2773H38.2738V93.8994C38.2738 92.7257 38.2739 92.0623 38.2228 91.3989C38.1718 90.8885 38.1208 89.6127 38.0697 89.3576C37.9677 89.0514 37.6615 88.8472 37.3553 88.8472H36.947C36.8449 88.8472 36.8449 88.7962 36.8449 88.7452V88.439C36.8449 88.3369 36.8449 88.3369 36.947 88.3369C37.1001 88.3369 37.5084 88.3879 38.4269 88.3879C39.2435 88.3879 39.5497 88.3369 39.7028 88.3369C39.8048 88.3369 39.8559 88.3879 39.8559 88.439V88.7452C39.8559 88.8472 39.8048 88.8983 39.7538 88.8983H39.4476C39.1924 88.8983 39.0393 89.1024 38.9883 89.6127C38.9373 90.5313 38.7842 92.7767 38.7842 94.1036V97.6248C38.7842 97.8289 38.7842 97.982 38.6311 97.982C38.4269 97.982 38.2739 97.88 38.1718 97.7779C38.0697 97.6248 37.3553 96.8083 36.5388 95.8387C35.6202 94.7159 34.5485 93.4401 34.3954 93.236C34.1913 93.0319 32.0989 90.3782 31.9458 90.2251H31.8438V91.9092Z" fill="#3C5750"/>
<path d="M42.2035 94.2562C42.1015 94.5624 41.4381 96.4506 41.387 96.8078C41.336 96.9099 41.336 97.012 41.336 97.063C41.336 97.2161 41.5401 97.3692 41.7953 97.3692H42.3566C42.4587 97.3692 42.5097 97.4202 42.5097 97.4202V97.7775C42.5097 97.8795 42.4587 97.9306 42.4077 97.9306C42.2035 97.9306 41.6422 97.8795 40.7236 97.8795C39.754 97.8795 39.4478 97.9306 39.2437 97.9306C39.1416 97.9306 39.1416 97.8285 39.1416 97.7775V97.5223C39.1416 97.4202 39.1926 97.4202 39.2437 97.4202H39.6519C40.0092 97.4202 40.2643 97.2161 40.5195 96.8078C40.6726 96.5527 41.5912 94.1542 41.9994 93.0825L43.3263 89.6123C43.3773 89.4592 43.4283 89.2551 43.3773 89.153C43.3263 89.102 43.2752 89.0509 43.2752 88.9999C43.2752 88.9489 43.3262 88.8978 43.4283 88.8468C43.8366 88.7447 44.6021 88.3365 44.7552 88.1834C44.8572 88.0813 44.9083 88.0303 44.9593 88.0303C45.0613 88.0303 45.1124 88.1834 45.1124 88.2855C45.3676 89.102 46.3882 92.1129 46.6434 92.9294C46.9496 93.95 47.8171 96.4506 48.0212 96.8078C48.2764 97.2671 48.5826 97.4202 48.8888 97.4202H49.297C49.3991 97.4202 49.3991 97.4713 49.3991 97.5223V97.7775C49.3991 97.8795 49.3481 97.9306 49.246 97.9306C48.9909 97.9306 48.7357 97.8795 47.2557 97.8795C46.133 97.8795 45.6737 97.9306 45.4186 97.9306C45.3165 97.9306 45.2655 97.8285 45.2655 97.7775V97.5223C45.2655 97.4202 45.3165 97.4202 45.3676 97.4202H45.7248C46.082 97.4202 46.1841 97.2671 46.133 96.9099C46.031 96.4506 45.4696 94.7155 45.3165 94.2562H42.2035ZM45.1634 93.6949C45.0103 93.2866 44.1428 90.2757 44.0407 90.0205C43.9897 89.8674 43.9386 89.7654 43.8876 89.7654C43.7856 89.7654 43.7345 89.8164 43.7345 89.9185C43.6835 90.0716 42.5097 93.3887 42.4077 93.6438H45.1634V93.6949Z" fill="#3C5750"/>
<path d="M59.5546 89.3568C60.5752 90.1734 61.3407 91.5002 61.3407 93.2863C61.3407 94.2559 61.0855 95.3276 60.3711 96.1952C59.5035 97.2668 58.3808 98.0834 56.3906 98.0834C55.5741 98.0834 54.4513 97.8282 53.3797 97.2158C52.41 96.6545 51.4404 95.1745 51.4404 93.2863C51.4404 92.4698 51.6446 91.245 52.6652 89.9692C53.8389 88.5403 55.2679 88.2852 56.3906 88.2852C57.4112 88.2852 58.4829 88.4893 59.5546 89.3568ZM54.4513 89.612C53.6348 90.3775 53.2776 91.7554 53.2776 92.827C53.2776 96.2972 55.421 97.522 56.5437 97.522C59.2484 97.522 59.6566 94.5621 59.6566 93.4394C59.6566 90.5306 57.6664 88.8975 56.3906 88.8975C56.1354 88.8465 55.3699 88.7445 54.4513 89.612Z" fill="#3C5750"/>
<path d="M64.7084 94.4094C64.7084 95.2259 64.7594 96.7059 64.7594 96.91C64.8104 97.1652 64.9125 97.4203 65.1166 97.4203H65.7801C65.8821 97.4203 65.8821 97.4714 65.8821 97.5224V97.8286C65.8821 97.9306 65.8311 97.9307 65.729 97.9307C65.5759 97.9307 65.2697 97.8796 63.8919 97.8796C62.565 97.8796 62.2588 97.9307 62.1568 97.9307C62.0547 97.9307 62.0547 97.8796 62.0547 97.8286V97.5224C62.0547 97.4714 62.1057 97.4203 62.1568 97.4203H62.616C62.9222 97.4203 63.1264 97.3183 63.1264 96.961C63.1774 95.6342 63.1774 94.3584 63.1774 93.1336V89.6124C63.1774 89.1531 62.9733 88.949 62.7692 88.949H62.2588C62.2078 88.949 62.1568 88.8979 62.1568 88.8469V88.4897C62.1568 88.4386 62.2078 88.3876 62.2588 88.3876C62.3609 88.3876 62.7691 88.4386 64.096 88.4386C64.8615 88.4386 66.0862 88.3876 66.4435 88.3876C67.5152 88.3876 68.3317 88.7448 68.842 89.2041C69.3013 89.6124 69.5564 90.1737 69.5564 90.6841C69.5564 92.3681 68.5358 93.0315 67.1069 93.2867V93.3377C67.4641 93.4908 67.7193 93.695 67.9234 93.9501C68.0765 94.1543 68.893 95.4301 68.9951 95.5832C69.0972 95.7363 69.9137 96.91 70.1178 97.1141C70.373 97.3183 70.7302 97.3693 71.0874 97.3693C71.1895 97.3693 71.1895 97.4203 71.1895 97.4714V97.7265C71.1895 97.8286 71.1384 97.8796 71.0874 97.8796C70.9854 97.8796 70.6281 97.8286 69.7606 97.8286C69.4033 97.8286 68.893 97.8796 68.5868 97.8796C68.4337 97.7776 68.1786 97.4203 68.0255 97.1141C67.7703 96.7569 67.26 95.7873 67.1579 95.5832C67.0048 95.328 66.6476 94.7156 66.4435 94.4605C66.0862 94.0012 65.7801 93.6439 65.2697 93.6439C65.2187 93.6439 65.0146 93.6439 64.8615 93.695V94.4094H64.7084ZM64.7594 93.2357C64.9635 93.2867 65.1166 93.2867 65.2697 93.2867C67.3621 93.2867 67.7703 91.6026 67.7703 90.9903C67.7703 90.3779 67.5152 89.8165 67.209 89.5103C66.7497 89.1021 66.1373 88.949 65.4739 88.949C65.2697 88.949 65.1166 88.949 65.0146 89.051C64.9125 89.1021 64.8615 89.2552 64.8615 89.4593L64.7594 93.2357Z" fill="#3C5750"/>
<path d="M79.7122 96.6037C79.7122 96.8078 79.7632 96.9099 79.7632 97.0119C79.7632 97.114 79.6611 97.165 79.5591 97.2161C78.4874 97.7774 77.3647 98.0836 75.7827 98.0836C74.4558 98.0836 72.8738 97.6243 71.9553 96.5526C71.1387 95.6341 70.7305 94.5114 70.7305 92.9294C70.7305 91.7046 71.2408 90.4288 72.2614 89.5612C73.2311 88.6937 74.4558 88.2344 76.0378 88.2344C77.3137 88.2344 78.3343 88.6426 78.7425 88.9488C78.8956 89.0509 78.9977 89.0509 79.0487 88.8978L79.2018 88.6937C79.2529 88.5916 79.3039 88.5406 79.406 88.5406C79.5591 88.5406 79.5591 88.6426 79.5591 88.7447L79.7122 91.3984C79.7122 91.5005 79.7122 91.5515 79.6611 91.6025L79.3549 91.6535C79.2529 91.6535 79.2529 91.6025 79.2018 91.5515C78.9977 91.0412 78.6915 90.2757 78.1302 89.7143C77.6709 89.255 76.9564 88.7957 75.9358 88.7957C75.1193 88.7957 74.4048 88.9999 73.6904 89.8164C73.0269 90.5308 72.6187 91.6535 72.6187 92.8273C72.6187 94.4093 73.0269 95.7361 73.7924 96.5016C74.4558 97.114 75.0682 97.4202 75.9358 97.4202C76.8033 97.4202 77.3136 97.3181 77.7219 97.063C78.0281 96.9099 78.0281 96.5526 78.0281 95.8382V94.8686C78.0281 94.4093 77.875 94.2562 77.5688 94.2562H77.0075C76.9054 94.2562 76.9054 94.2052 76.9054 94.1541V93.8479C76.9054 93.7459 76.9564 93.7459 77.0075 93.7459C77.1606 93.7459 77.824 93.7969 78.8956 93.7969C80.0184 93.7969 80.4777 93.7459 80.5797 93.7459C80.6818 93.7459 80.7328 93.7969 80.7328 93.8479V94.2052C80.7328 94.3072 80.6818 94.3072 80.6308 94.3072H80.1714C79.9163 94.3072 79.7632 94.4093 79.7632 94.8175V96.6037H79.7122Z" fill="#3C5750"/>
<path d="M83.2846 94.2562C83.1825 94.5624 82.5191 96.4506 82.4681 96.8078C82.417 96.9099 82.4171 97.012 82.4171 97.063C82.4171 97.2161 82.6212 97.3692 82.8763 97.3692H83.4377C83.5398 97.3692 83.5908 97.4202 83.5908 97.4202V97.7775C83.5908 97.8795 83.5398 97.9305 83.4887 97.9305C83.2846 97.9305 82.7232 97.8795 81.8047 97.8795C80.835 97.8795 80.5289 97.9305 80.3247 97.9305C80.2227 97.9305 80.2227 97.8285 80.2227 97.7775V97.5223C80.2227 97.4202 80.2737 97.4202 80.3247 97.4202H80.733C81.0902 97.4202 81.3454 97.2161 81.6005 96.8078C81.7536 96.5527 82.6722 94.1542 83.0805 93.0825L84.4073 89.6123C84.4583 89.4592 84.5094 89.255 84.4583 89.153C84.4073 89.1019 84.3563 89.0509 84.3563 88.9999C84.3563 88.9489 84.4073 88.8978 84.5094 88.8468C84.9176 88.7447 85.6831 88.3365 85.8362 88.1834C85.9383 88.0813 85.9893 88.0303 86.0403 88.0303C86.1424 88.0303 86.1934 88.1834 86.1934 88.2854C86.4486 89.102 87.4693 92.1129 87.7244 92.9294C88.0306 93.95 88.8981 96.4506 89.1023 96.8078C89.3574 97.2671 89.6636 97.4202 89.9698 97.4202H90.3781C90.4802 97.4202 90.4802 97.4713 90.4802 97.5223V97.7775C90.4802 97.8795 90.4291 97.9305 90.3271 97.9305C90.0719 97.9305 89.8167 97.8795 88.3368 97.8795C87.2141 97.8795 86.7548 97.9305 86.4996 97.9305C86.3976 97.9305 86.3465 97.8285 86.3465 97.7775V97.5223C86.3465 97.4202 86.3976 97.4202 86.4486 97.4202H86.8058C87.163 97.4202 87.2651 97.2671 87.2141 96.9099C87.112 96.4506 86.5507 94.7155 86.3976 94.2562H83.2846ZM86.2445 93.6949C86.0914 93.2866 85.2238 90.2757 85.1218 90.0205C85.0707 89.8674 85.0197 89.7654 84.9687 89.7654C84.8666 89.7654 84.8156 89.8164 84.8156 89.9185C84.7645 90.0716 83.5908 93.3887 83.4887 93.6438H86.2445V93.6949Z" fill="#3C5750"/>
<path d="M91.9595 91.9092C91.9595 94.1546 92.0616 96.0428 92.1126 96.451C92.1637 97.1145 92.3167 97.4207 92.776 97.4207H93.1333C93.2353 97.4207 93.2353 97.4717 93.2353 97.5227V97.8289C93.2353 97.931 93.2353 97.931 93.1333 97.931C92.9802 97.931 92.2147 97.8799 91.7044 97.8799C91.3471 97.8799 90.4286 97.931 90.3265 97.931C90.2755 97.931 90.2244 97.8799 90.2244 97.8289V97.4717C90.2244 97.4207 90.2755 97.3696 90.3265 97.3696H90.7858C91.143 97.3696 91.2961 97.0634 91.3982 96.2469C91.3982 95.9918 91.5002 94.1546 91.5002 92.0112V90.3272C91.5002 89.5107 91.0409 88.8983 90.4796 88.8983H89.9693C89.9182 88.8983 89.8672 88.8472 89.8672 88.7962V88.439C89.8672 88.3879 89.9182 88.3369 89.9693 88.3369C90.0203 88.3369 90.1223 88.3369 90.3775 88.3879C90.6327 88.3879 90.9899 88.3879 91.5513 88.3879C91.7554 88.3879 91.9595 88.3879 92.1126 88.3369C92.2657 88.3369 92.4188 88.3369 92.4698 88.3369C92.6229 88.3369 92.725 88.3879 92.776 88.439C92.9291 88.5921 95.5318 91.8581 95.7869 92.2154C95.9911 92.4195 98.0324 95.0221 98.2365 95.2773H98.2875V93.8994C98.2875 92.7257 98.2875 92.0623 98.2365 91.3989C98.1855 90.8885 98.1344 89.6127 98.0834 89.3576C97.9813 89.0514 97.6751 88.8472 97.3689 88.8472H96.9607C96.8586 88.8472 96.8586 88.7962 96.8586 88.7452V88.439C96.8586 88.3369 96.8586 88.3369 96.9607 88.3369C97.1138 88.3369 97.522 88.3879 98.4406 88.3879C99.2571 88.3879 99.5633 88.3369 99.7164 88.3369C99.8185 88.3369 99.8695 88.3879 99.8695 88.439V88.7452C99.8695 88.8472 99.8185 88.8983 99.7675 88.8983H99.4102C99.1551 88.8983 99.002 89.1024 98.951 89.6127C98.8999 90.5313 98.7468 92.7767 98.7468 94.1036V97.6248C98.7468 97.8289 98.7468 97.982 98.5937 97.982C98.3896 97.982 98.2365 97.88 98.1344 97.7779C98.0324 97.6248 97.3179 96.8083 96.5014 95.8387C95.5828 94.7159 94.5111 93.4401 94.358 93.236C94.1539 93.0319 92.0616 90.3782 91.9085 90.2251H91.8064V91.9092H91.9595Z" fill="#3C5750"/>
<path d="M103.238 93.5932C103.238 93.7463 103.289 96.8083 103.289 96.9103C103.289 97.3186 103.493 97.3696 103.8 97.3696H104.361C104.412 97.3696 104.463 97.4207 104.463 97.4717V97.8289C104.463 97.931 104.412 97.931 104.31 97.931C104.157 97.931 103.595 97.88 102.371 97.88C101.044 97.88 100.431 97.931 100.329 97.931C100.227 97.931 100.227 97.8799 100.227 97.8289V97.4717C100.227 97.4207 100.278 97.3696 100.329 97.3696H100.84C101.095 97.3696 101.401 97.3186 101.452 96.9614C101.503 96.7572 101.503 93.8994 101.503 93.185V92.2664C101.503 91.9602 101.452 89.5617 101.452 89.3576C101.401 89.0514 101.299 88.8983 100.891 88.8983H100.176C100.074 88.8983 100.074 88.8472 100.074 88.7962V88.439C100.074 88.3879 100.125 88.3369 100.176 88.3369C100.329 88.3369 101.044 88.3879 102.32 88.3879C103.595 88.3879 104.004 88.3369 104.208 88.3369C104.31 88.3369 104.31 88.3879 104.31 88.439V88.7452C104.31 88.8472 104.259 88.8472 104.208 88.8472H103.698C103.391 88.8472 103.187 88.9493 103.187 89.2045C103.187 89.3576 103.136 92.2664 103.136 92.4195V93.5932H103.238Z" fill="#3C5750"/>
<path d="M113.904 95.7366C113.955 95.7876 113.955 95.8387 113.955 95.8897C113.138 97.0124 111.862 98.1351 109.974 98.1351C108.29 98.1351 107.321 97.6248 106.504 96.9103C105.534 96.0428 105.075 94.5118 105.075 93.3381C105.075 92.0112 105.483 90.7865 106.453 89.7658C107.168 89.0003 108.29 88.3369 109.923 88.3369C111.148 88.3369 112.118 88.6941 112.628 89.0003C112.832 89.1024 112.883 89.1024 112.883 89.0003L112.985 88.6431C113.036 88.541 113.036 88.541 113.189 88.541C113.342 88.541 113.393 88.5921 113.393 88.7452C113.393 89.0003 113.649 91.0927 113.7 91.5009C113.7 91.603 113.7 91.603 113.649 91.654L113.393 91.7561C113.342 91.8071 113.291 91.705 113.24 91.603C113.087 91.1437 112.781 90.4803 112.22 89.8679C111.658 89.3065 110.944 88.8983 109.923 88.8983C107.78 88.8983 106.912 90.8375 106.912 92.7257C106.912 93.5422 107.168 95.1242 108.137 96.1959C109.005 97.1145 109.77 97.2165 110.434 97.2165C111.914 97.2165 113.036 96.5021 113.598 95.6856C113.649 95.5835 113.7 95.5325 113.751 95.5835L113.904 95.7366Z" fill="#3C5750"/>
<path d="M114.976 94.9201C115.027 94.9201 115.078 94.9711 115.078 95.0221C115.129 95.4304 115.231 95.9407 115.588 96.5531C115.996 97.2165 116.66 97.5227 117.323 97.5227C118.038 97.5227 119.058 97.0634 119.058 95.9918C119.058 94.767 118.497 94.3587 117.068 93.8484C116.66 93.6953 115.741 93.3381 115.129 92.7257C114.669 92.3174 114.465 91.654 114.465 90.8375C114.465 90.072 114.772 89.4596 115.384 89.0003C115.894 88.541 116.507 88.3369 117.272 88.3369C118.14 88.3369 118.701 88.541 118.956 88.6431C119.109 88.6941 119.16 88.6941 119.211 88.5921L119.364 88.439C119.415 88.3879 119.467 88.3369 119.569 88.3369C119.671 88.3369 119.671 88.439 119.671 88.541C119.671 88.7452 119.875 90.6334 119.875 90.7354C119.875 90.7865 119.824 90.8375 119.773 90.8375L119.569 90.8885C119.518 90.8885 119.467 90.8885 119.415 90.7865C119.262 90.4292 119.058 89.8679 118.599 89.3576C118.242 89.0003 117.833 88.7962 117.221 88.7962C116.149 88.7962 115.741 89.6638 115.741 90.123C115.741 90.5823 115.792 90.9906 116.098 91.2968C116.456 91.654 117.17 91.9602 117.731 92.1133C118.497 92.3685 119.16 92.6236 119.671 93.1339C120.079 93.5932 120.334 94.1546 120.334 95.0221C120.334 96.6552 119.262 97.982 117.527 97.982C116.456 97.982 115.792 97.7268 115.282 97.3186C115.129 97.2165 115.027 97.1655 114.976 97.1655C114.925 97.1655 114.823 97.2676 114.772 97.4207C114.669 97.5738 114.618 97.5738 114.516 97.5738C114.414 97.5738 114.363 97.4717 114.363 97.3696C114.414 97.2165 114.567 95.0732 114.618 94.9201C114.618 94.818 114.669 94.818 114.721 94.818L114.976 94.9201Z" fill="#3C5750"/>
<path d="M120.678 83.4889C123.74 76.2933 125.475 68.3323 125.475 59.963C125.475 26.843 98.6318 0 65.5118 0C32.3918 0 5.54883 26.843 5.54883 59.963C5.54883 68.2812 7.23289 76.2423 10.3459 83.4889H120.678Z" fill="#3C5750"/>
<path d="M112.87 83.4884C116.391 76.3949 118.381 68.4339 118.381 59.9625C118.381 30.721 94.7021 7.04199 65.4606 7.04199C36.219 7.04199 12.54 30.721 12.54 59.9625C12.54 68.3829 14.5303 76.3949 18.0515 83.4884H112.87Z" fill="#212C29"/>
<path d="M65.4594 61.6464C74.9293 61.6464 82.6062 53.9695 82.6062 44.4995C82.6062 35.0296 74.9293 27.3527 65.4594 27.3527C55.9894 27.3527 48.3125 35.0296 48.3125 44.4995C48.3125 53.9695 55.9894 61.6464 65.4594 61.6464Z" fill="#698B81"/>
<path d="M106.337 80.8349C104.755 79.8143 103.122 78.7426 101.54 77.7219C101.081 77.4158 100.621 77.0075 100.213 76.5992C99.3456 75.6296 98.325 74.8641 97.1512 74.3028C96.2837 73.8945 95.5182 73.129 94.7527 72.4656C94.3955 72.1594 94.1403 72.2105 93.7321 72.4146C91.8439 73.4352 89.9557 74.5579 88.0165 75.4255C87.0979 75.8338 86.0262 76.14 85.1586 75.0172C84.9035 74.711 84.4952 74.5069 84.2401 74.1497C83.4746 73.2311 82.4539 72.8739 81.2802 72.9759C80.3616 73.078 79.8002 72.5167 79.1879 72.0063C78.9837 71.8022 78.7796 71.547 78.5244 71.496C76.5342 71.1388 75.4625 69.3527 73.8295 68.4341C71.3799 67.0562 69.4917 65.0659 67.3994 63.1777C66.8891 63.535 66.4298 63.8922 65.9705 64.3005C65.0519 65.117 64.2864 66.0866 63.2658 66.699C62.2451 67.2603 61.6327 68.1789 60.8162 68.8934C60.7141 68.9444 60.6631 69.0975 60.5611 69.0975C59.1832 69.0465 58.5708 70.2202 57.7032 70.9347C57.2439 71.2919 56.8357 71.7512 56.3764 72.1084C55.8661 72.4656 55.3047 72.7208 54.7434 72.9759C54.4372 73.129 54.08 73.2311 53.7738 73.4352C52.8041 74.1497 51.8856 74.8131 50.967 75.5786C50.6098 75.8848 50.3546 75.8848 49.9463 75.6296C48.4664 74.66 46.9354 73.6904 45.4555 72.7208C44.9962 72.4146 44.69 72.3636 44.1797 72.6697C42.5977 73.6394 40.9646 74.5579 39.3316 75.5276C39.0254 75.6807 38.7192 75.8848 38.413 75.8338C37.3924 75.7317 36.5248 76.1399 35.7083 76.6503C35.3 76.9054 34.8408 77.0585 34.4835 77.3647C33.0546 78.4874 31.4726 78.7936 29.7375 78.3854C29.3293 78.2833 28.8189 78.4364 28.4107 78.6405C27.0838 79.304 25.808 80.0694 24.5322 80.7839C24.5833 80.8349 24.5833 80.937 24.6343 80.988C25.6039 80.6308 26.5735 80.3246 27.4921 79.8143C28.5128 79.2529 29.5334 79.0998 30.7071 79.457C31.6257 79.7122 32.4933 79.5591 33.3098 79.0998C34.3304 78.4874 35.4021 77.9261 36.4738 77.4157C36.9331 77.2116 37.4944 77.1606 38.0048 77.0075C38.0558 77.1096 38.0558 77.2116 38.1068 77.3137C37.6475 77.5689 37.1372 77.875 36.5248 78.2323C36.9331 78.2833 37.1882 78.2833 37.4944 78.3343C36.5759 79.5081 35.249 79.457 34.0242 79.8143C32.3912 80.2736 30.7582 80.7839 29.1251 81.2432C29.1762 81.3452 29.1762 81.4473 29.2272 81.5494C30.0437 81.3963 30.8602 81.1921 31.7278 81.0901C32.7484 80.937 33.8201 80.6308 34.8408 80.6818C37.0351 80.7839 38.8213 79.8143 40.7095 78.9978C41.475 78.6405 42.2404 78.1302 43.0059 77.6709C43.4142 77.9771 43.9755 78.3343 44.4348 78.7426C44.5369 78.8447 44.3838 79.406 44.2307 79.5081C43.3632 80.1205 42.4446 80.6308 41.475 81.1922C42.8018 81.0901 45.3024 79.6612 45.4555 78.8957C45.8127 78.9978 46.221 79.0998 46.6803 79.2529C44.4859 77.1606 44.2307 76.4461 45.2003 75.8338C45.1493 75.2214 45.0983 74.66 44.9962 74.1497C45.0472 74.0987 45.1493 74.0987 45.2003 74.0476C46.6292 75.0172 48.0581 76.0379 49.487 77.0585C49.2319 77.5178 49.0277 77.9771 48.8236 78.3854C48.8746 78.4364 48.8747 78.4364 48.9257 78.4874C49.9463 77.6199 51.018 76.8034 52.0387 75.9358C52.549 75.5276 53.0593 75.0172 53.6206 74.711C54.0799 74.4048 54.6413 74.3028 55.2027 74.0476C55.5088 73.8945 55.8661 73.7414 56.1723 73.5883C56.8867 73.129 57.5501 72.6698 58.3156 72.2615C57.2439 73.4863 56.4274 75.0172 55.1006 75.8338C53.1614 77.0585 51.6304 78.6916 49.7932 79.9674C48.8236 80.6818 47.7519 81.1411 46.4761 81.2432C44.9962 81.3452 43.5673 81.7535 42.0874 82.0597C42.0874 82.1618 42.1384 82.3149 42.1384 82.4169C42.7508 82.3659 43.3121 82.2638 43.9245 82.2128C43.9245 82.2638 43.9755 82.3659 43.9755 82.4169C43.057 83.0293 42.0363 83.2845 40.9646 83.4886H46.4251C47.5988 83.3865 48.7726 83.2845 49.9974 83.1824C49.8953 83.2845 49.7932 83.3865 49.6401 83.4886H54.5392C54.6923 83.4376 54.8454 83.3355 54.9475 83.2845C55.1516 83.1824 55.4578 83.1824 55.5089 83.0293C56.0192 82.1618 56.7336 81.9576 57.7032 82.2128C58.0094 82.2638 58.4687 81.9066 58.7749 81.6004C59.7445 80.7329 60.1528 80.6818 61.0714 81.6514C61.3776 82.0087 61.6838 82.4169 62.041 82.7231C62.3982 83.0293 62.8065 83.1824 63.2147 83.3865C63.2658 83.3865 63.3168 83.4376 63.3678 83.4376H64.9498C64.7967 83.2334 64.7457 82.9783 64.5926 82.7741C64.3885 82.519 64.2354 82.2128 63.9802 82.0597C62.2451 81.1411 60.8162 79.9163 59.6425 78.2323C60.3059 77.4158 60.9693 76.5482 61.7348 75.5786C62.4493 76.242 63.0616 76.9565 63.8271 77.5178C64.7457 78.2833 65.7664 78.8957 66.838 79.7122C66.736 79.355 66.6339 79.1508 66.5829 78.9467C66.6339 78.8957 66.6849 78.7936 66.736 78.7426C67.5525 79.2019 68.318 79.6612 69.2876 80.2225C68.5221 79.355 67.9607 78.4874 66.787 78.3854C65.4091 78.2833 64.8478 77.0585 63.9292 76.3951C64.8988 75.7317 65.8174 75.1193 66.6849 74.4048C67.6545 73.6394 67.9097 72.1594 67.5014 70.9857C67.2973 70.4754 67.2973 69.863 67.3484 69.2506C69.1345 70.0671 69.5938 72.4146 71.9923 72.4146C71.584 72.0063 71.1247 71.5981 70.7675 71.1388C69.951 70.2712 69.1855 69.3526 68.42 68.4851C68.0118 68.0258 67.5525 67.5665 66.9911 67.0052C67.1953 66.801 67.7056 66.5969 67.8587 66.1886C68.0118 65.7804 67.7566 65.219 67.7056 64.5046C69.0835 65.8314 70.3593 67.0562 71.584 68.2299C71.7371 68.383 71.9413 68.6382 72.1454 68.6892C74.0336 69.0465 75.1563 70.6285 76.6873 71.547C76.6873 71.6491 76.6362 71.7001 76.6362 71.8022C76.228 71.7512 75.7687 71.6491 75.3604 71.5981C75.3094 71.6491 75.3094 71.7001 75.2584 71.7512C76.228 72.2105 77.1466 72.6187 78.1162 73.078C78.3713 73.1801 78.5755 73.4352 78.7286 73.6904C79.2389 74.7621 79.6472 75.8337 80.1064 76.9054C80.2085 76.7523 80.3106 76.6503 80.4637 76.4461C80.7699 77.1096 80.974 77.7219 81.3312 78.4874C78.7796 77.1096 76.4321 75.8338 74.0846 74.558C74.0336 74.66 73.9826 74.711 73.9315 74.8131C77.6059 77.4668 81.3312 80.1715 85.0055 82.8252C85.0566 82.7741 85.0566 82.7742 85.1076 82.7231C84.2401 81.8045 83.4235 80.937 82.4539 79.8653C83.6277 79.8653 84.5973 79.8653 85.5159 79.8653C85.5669 79.8143 85.5669 79.8143 85.6179 79.7632C85.1076 79.5081 84.5462 79.1509 83.9849 78.9978C83.3215 78.8447 82.9132 78.4874 82.7601 77.824C82.556 77.0075 82.0967 76.3441 81.4843 75.7317C81.025 75.2724 80.8719 74.5579 80.5657 73.8945C82.8622 73.8435 84.189 74.9662 85.3117 76.5482C85.9241 77.3647 86.5875 78.1812 87.1999 78.9978C87.302 78.9467 87.4041 78.8447 87.4551 78.7936C87.353 78.6405 87.1999 78.4364 87.0979 78.2833C86.9448 78.0792 86.6896 77.8751 86.5875 77.6199C86.4855 77.4158 86.4344 77.1606 86.3834 76.8034C88.1185 78.2323 89.8026 79.6101 91.4866 80.988C91.5377 80.8859 91.6397 80.8349 91.6908 80.7329C91.2825 80.2736 90.9253 79.7632 90.5681 79.355C90.9253 78.7426 91.2825 78.1302 91.5887 77.5689C91.6397 77.4668 91.7418 77.2627 91.7418 77.2116C91.1805 75.8338 92.4563 75.4765 93.1197 74.5069C93.5279 76.14 93.8852 77.6199 94.2424 79.0998C94.3955 78.8447 94.5996 78.5895 94.7017 78.3854C95.7223 78.9467 96.6409 79.6612 97.6616 79.9163C99.1415 80.2736 100.315 81.0901 101.591 81.7535C100.775 80.988 100.162 80.0184 98.9374 79.6612C97.3043 79.2019 96.0285 78.0792 94.7527 76.9565C94.5996 76.8034 94.4976 76.5482 94.4465 76.3441C94.3445 75.7317 94.1914 75.0683 94.1914 74.4559C94.1914 73.9456 94.4465 73.4863 94.6507 72.8739C95.3141 73.4352 95.9775 74.0476 96.692 74.558C97.0492 74.8131 97.4574 74.9152 97.8657 75.1193C98.2229 75.2724 98.5801 75.4255 98.8353 75.6807C99.958 76.8034 100.979 77.9261 102.203 79.2019C102.101 78.7936 101.999 78.5385 101.897 78.1812C103.479 79.0998 104.908 79.9163 106.388 80.7839C106.235 80.988 106.286 80.937 106.337 80.8349Z" fill="#3C5750"/>
<path d="M43.5664 55.625C43.5664 55.625 43.9236 59.4014 48.9758 60.5241C48.9758 60.5241 48.3634 56.2374 43.5664 55.625Z" fill="white"/>
<path d="M43.0062 58.8908C43.0062 58.8908 41.8835 63.1265 46.5785 65.3719C46.5785 65.3719 47.3439 60.3707 43.0062 58.8908Z" fill="white"/>
<path d="M41.8319 62.1572C41.8319 62.1572 39.7906 66.2398 43.618 69.3018C43.567 69.3018 46.0165 65.4743 41.8319 62.1572Z" fill="white"/>
<path d="M36.7286 61.1357C36.7286 61.1357 40.8622 63.0239 39.2802 67.6679C39.2292 67.6679 35.4018 65.5756 36.7286 61.1357Z" fill="white"/>
<path d="M35.1977 62.1572C35.1977 62.1572 33.0033 65.015 35.606 69.3018C35.5549 69.3018 38.0045 65.9847 35.1977 62.1572Z" fill="white"/>
<path d="M33.1567 63.994C33.1567 63.994 29.8907 63.943 29.4824 69.3014C29.4824 69.3014 33.616 68.0256 33.1567 63.994Z" fill="white"/>
<path d="M41.4747 56.0332C41.4747 56.0332 38.0045 56.6966 38.4638 60.5241C38.4638 60.5241 41.6788 60.1158 41.4747 56.0332Z" fill="white"/>
<path d="M35.9126 59.2989C35.9126 59.2989 35.6064 55.1653 30.6562 55.6756C30.6563 55.6246 31.1155 59.0438 35.9126 59.2989Z" fill="white"/>
<path d="M33.6154 60.7789C33.6154 60.7789 31.5231 57.4107 26.8281 60.2175C26.8281 60.2175 28.9715 62.7181 33.6154 60.7789Z" fill="white"/>
<path d="M31.6251 62.5651C31.6251 62.5651 26.7771 60.9321 25.2461 65.2188C25.2461 65.1677 29.6859 66.2905 31.6251 62.5651Z" fill="white"/>
<path d="M25.2465 58.0742C25.2465 58.0742 22.0825 59.4011 23.1032 64.6574C23.1032 64.6574 26.2672 63.0244 25.2465 58.0742Z" fill="white"/>
<path d="M22.2865 62.9219C22.2865 62.9219 18.7653 63.7894 19.5818 68.1272C19.5818 68.1272 22.8989 67.0555 22.2865 62.9219Z" fill="white"/>
<path d="M30.2474 53.9406C30.2474 53.9406 26.6241 53.9916 26.5221 58.2783C26.471 58.2783 29.7371 57.8701 30.2474 53.9406Z" fill="white"/>
<path d="M34.9424 56.1346C34.9424 56.1346 34.9934 52.3582 38.6677 52.2051C38.6677 52.2051 38.2085 55.9815 34.9424 56.1346Z" fill="white"/>
<path d="M27.2872 54.1447C27.2872 54.1447 23.5619 53.073 20.9082 57.1046C20.9082 57.1046 25.9094 58.1762 27.2872 54.1447Z" fill="white"/>
<path d="M22.5418 57.8701C22.5418 57.8701 19.1226 58.0743 18.8164 62.2589C18.8164 62.2079 22.0825 61.8507 22.5418 57.8701Z" fill="white"/>
<path d="M37.2898 50.2661C37.2898 50.2661 36.4222 45.6732 40.709 44.6526C40.709 44.6526 41.3724 48.8372 37.2898 50.2661Z" fill="white"/>
<path d="M41.7803 50.2663C41.7803 50.2663 40.1473 47.4085 42.4948 45.061C42.4948 45.01 44.0768 48.6843 41.7803 50.2663Z" fill="white"/>
<path d="M30.6562 47.6636C30.6562 47.6636 34.943 47.3574 35.7084 51.0827C35.6574 51.0827 31.4728 51.3889 30.6562 47.6636Z" fill="white"/>
<path d="M32.3906 45.3161C32.3906 45.3161 35.7588 45.0099 35.8608 48.327C35.9119 48.276 32.6458 48.1739 32.3906 45.3161Z" fill="white"/>
<path d="M28.3589 48.8887C28.3589 48.8887 32.0332 49.399 32.1863 52.2058C32.1863 52.2058 28.3079 51.9506 28.3589 48.8887Z" fill="white"/>
<path d="M27.1343 51.6439C27.1343 51.6439 27.6956 48.5309 24.9909 47.6123C24.9909 47.6633 24.1744 50.8784 27.1343 51.6439Z" fill="white"/>
<path d="M24.3788 52.8688C24.3788 52.8688 21.0106 51.542 20.041 53.9405C20.041 53.9405 23.103 54.9612 24.3788 52.8688Z" fill="white"/>
<path d="M24.3791 50.572C24.3791 50.572 24.1239 47.459 21.1641 47.459C21.1641 47.459 21.5723 50.3678 24.3791 50.572Z" fill="white"/>
<path d="M23.8179 51.3382C23.8179 51.3382 21.6235 49.9603 19.7354 51.6954C19.7354 51.6444 22.1339 52.7671 23.8179 51.3382Z" fill="white"/>
<path d="M26.2669 46.6425C26.2669 46.6425 24.9401 44.9074 22.0312 46.1832C22.0312 46.1832 23.9705 48.0714 26.2669 46.6425Z" fill="white"/>
<path d="M27.2879 44.8569C27.2879 44.8569 25.91 41.7439 22.797 43.0197C22.746 43.0197 24.4301 46.1327 27.2879 44.8569Z" fill="white"/>
<path d="M30.2475 45.5202C30.2475 45.5202 27.7979 45.3161 27.1855 48.6332C27.1855 48.6332 30.2985 48.4801 30.2475 45.5202Z" fill="white"/>
<path d="M31.4206 41.5398C31.4206 41.5398 28.0525 41.897 27.8994 45.061C27.9504 45.01 30.7062 45.061 31.4206 41.5398Z" fill="white"/>
<path d="M33.8708 38.3244C33.8708 38.3244 30.6047 37.1506 28.9717 40.2636C28.9717 40.3146 32.3908 41.5904 33.8708 38.3244Z" fill="white"/>
<path d="M32.5434 35.2113C32.5434 35.2113 31.7269 32.0983 29.2773 32.7107C29.2773 32.7107 29.4815 35.6705 32.5434 35.2113Z" fill="white"/>
<path d="M32.6969 37.3041C32.6969 37.3041 30.3494 34.1911 26.4199 36.1303C26.4199 36.0793 29.1757 38.9881 32.6969 37.3041Z" fill="white"/>
<path d="M28.3596 41.0804C28.3596 41.0804 27.9003 37.5591 25.1445 37.8653C25.1445 37.8143 25.1956 40.2638 28.3596 41.0804Z" fill="white"/>
<path d="M35.0443 34.5999C35.0443 34.5999 32.2376 31.9462 35.0443 27.7105C35.0443 27.6595 37.8001 31.0787 35.0443 34.5999Z" fill="white"/>
<path d="M35.9123 37.0488C35.9123 37.0488 35.1978 33.0173 39.2804 31.6904C39.2804 31.7414 39.2804 36.3344 35.9123 37.0488Z" fill="white"/>
<path d="M37.239 39.7532C37.239 39.7532 36.8818 36.4871 39.9948 35.9258C39.9948 35.9258 40.0968 39.447 37.239 39.7532Z" fill="white"/>
<path d="M33.5136 34.3952C33.5136 34.3952 30.5027 32.507 31.2682 29.7002C31.2682 29.7002 34.177 31.3843 33.5136 34.3952Z" fill="white"/>
<path d="M41.2197 38.5799C41.2197 38.5799 45.8126 35.9263 48.0581 39.4475C48.1091 39.4475 43.9755 41.846 41.2197 38.5799Z" fill="white"/>
<path d="M40.8623 35.7731C40.8623 35.7731 42.9546 32.3539 47.0883 33.9869C47.0883 33.9359 45.4552 37.5082 40.8623 35.7731Z" fill="white"/>
<path d="M46.0164 32.2519C46.0164 32.2519 43.9751 29.7513 41.2704 32.3539C41.2194 32.3029 43.4138 33.7828 46.0164 32.2519Z" fill="white"/>
<path d="M44.2302 30.2108C44.2302 30.2108 42.1889 26.8937 37.5449 28.833C37.596 28.833 39.7903 31.5887 44.2302 30.2108Z" fill="white"/>
<path d="M42.1378 27.3524C42.1378 27.3524 40.913 23.3719 35.9629 25.209C35.9629 25.209 38.0042 28.4751 42.1378 27.3524Z" fill="white"/>
<path d="M43.3629 26.0259C43.3629 26.0259 43.7711 22.913 40.6581 22.3516C40.6581 22.3516 39.8416 25.4646 43.3629 26.0259Z" fill="white"/>
<path d="M47.4966 25.2601C47.4966 25.2601 47.1904 21.1265 42.5464 21.0244C42.4954 21.0244 42.9547 25.056 47.4966 25.2601Z" fill="white"/>
<path d="M45.6074 27.3532C45.6074 27.3532 48.4142 25.567 50.3534 28.7821C50.3024 28.7821 47.1894 30.0069 45.6074 27.3532Z" fill="white"/>
<path d="M49.6396 25.0054C49.6396 25.0054 50.5582 19.596 46.6287 19.1367C46.6797 19.1367 45.8122 23.1683 49.6396 25.0054Z" fill="white"/>
<path d="M51.7841 26.2305C51.7841 26.2305 48.4669 21.9437 52.0902 19.0859C52.0902 19.137 54.4377 23.0154 51.7841 26.2305Z" fill="white"/>
<path d="M52.7529 28.1178C52.7529 28.1178 52.3446 24.3415 56.172 22.7084C56.172 22.6574 56.8354 27.3524 52.7529 28.1178Z" fill="white"/>
<path d="M55.6616 29.9043C55.6616 29.9043 59.0808 30.1084 58.3664 33.3745C58.3664 33.3745 55.4575 33.2214 55.6616 29.9043Z" fill="white"/>
<path d="M60 33.3743C60 33.3743 57.9077 30.0061 59.8979 27.9648C59.8979 27.9648 62.1944 30.6185 60 33.3743Z" fill="white"/>
<path d="M57.6517 26.842C57.6517 26.842 55.7635 23.9331 57.6517 22.0449C57.6517 22.0449 59.4378 24.5965 57.6517 26.842Z" fill="white"/>
<path d="M56.2234 16.6865C56.2234 16.6865 55.4069 20.9732 59.6425 22.6573C59.6425 22.6573 59.4894 17.5541 56.2234 16.6865Z" fill="white"/>
<path d="M52.2422 16.84C52.2422 16.84 55.5593 16.891 56.0696 20.4122C56.0186 20.4122 52.2932 20.5143 52.2422 16.84Z" fill="white"/>
<path d="M59.795 14.9519C59.795 14.9519 62.4486 17.2994 60.4074 20.5655C60.4074 20.5655 58.0088 19.2897 59.795 14.9519Z" fill="white"/>
<path d="M62.959 18.32C62.959 18.32 63.8265 14.5946 66.8885 14.9519C66.8885 14.9519 66.7354 17.9628 62.959 18.32Z" fill="white"/>
<path d="M61.9383 18.6261C61.9383 18.6261 59.5397 21.3308 62.2955 24.75C62.2955 24.6989 64.2858 21.1777 61.9383 18.6261Z" fill="white"/>
<path d="M63.7245 22.6582C63.7245 22.6582 63.3162 25.6691 67.3478 25.7201C67.3478 25.7712 67.2457 23.0665 63.7245 22.6582Z" fill="white"/>
<path d="M65.0519 18.5242C65.0519 18.5242 69.0324 20.0041 68.42 23.9846C68.42 23.9846 64.1333 22.4537 65.0519 18.5242Z" fill="white"/>
<path d="M69.4916 22.5047C69.4916 22.5047 66.6848 18.3711 69.4916 15.7685C69.4916 15.7685 71.737 18.8814 69.4916 22.5047Z" fill="white"/>
<path d="M71.6346 20.1061C71.6346 20.1061 70.665 16.5848 73.931 15.6152C73.931 15.6152 74.3903 19.3406 71.6346 20.1061Z" fill="white"/>
<path d="M73.9307 20.8206C73.9307 20.8206 74.2879 17.0952 79.136 16.738C79.136 16.687 79.0849 20.9226 73.9307 20.8206Z" fill="white"/>
<path d="M72.6045 23.6275C72.6045 23.6275 76.0747 20.4124 79.2897 23.0151C79.2387 23.0151 76.1257 25.6177 72.6045 23.6275Z" fill="white"/>
<path d="M70.002 25.5666C70.002 25.5666 74.5438 24.2908 76.33 28.1182C76.33 28.1182 71.3798 29.394 70.002 25.5666Z" fill="white"/>
<path d="M75.207 25.2098C75.207 25.2098 78.1669 24.2912 79.2386 26.0773C79.2386 26.0773 76.4828 27.7614 75.207 25.2098Z" fill="white"/>
<path d="M79.7998 23.5768C79.7998 23.5768 80.5653 19.7493 85.4134 20.0555C85.4134 20.1066 83.6783 24.2402 79.7998 23.5768Z" fill="white"/>
<path d="M87.9648 20.667C87.9648 20.667 84.4436 20.9222 83.0146 24.2393C83.0146 24.2393 86.9441 24.1372 87.9648 20.667Z" fill="white"/>
<path d="M83.0146 25.9242C83.0146 25.9242 86.3318 22.352 89.955 24.6994C90.0061 24.6994 86.9441 28.0165 83.0146 25.9242Z" fill="white"/>
<path d="M88.4756 27.9652C88.4756 27.9652 89.5473 23.8316 93.2216 24.0868C93.2216 24.0868 92.6092 27.8632 88.4756 27.9652Z" fill="white"/>
<path d="M79.647 27.6074C79.647 27.6074 83.6275 28.1688 83.5254 32.6596C83.5254 32.6596 79.5959 31.741 79.647 27.6074Z" fill="white"/>
<path d="M81.2793 26.8424C81.2793 26.8424 85.515 25.8218 87.4542 29.5982C87.4542 29.5982 82.6061 30.6698 81.2793 26.8424Z" fill="white"/>
<path d="M61.5302 34.0377C61.5302 34.0377 60.8667 29.2917 64.388 28.1689C64.388 28.22 64.9493 32.966 61.5302 34.0377Z" fill="white"/>
<path d="M66.531 32.6601C66.531 32.6601 64.3367 31.2312 65.7656 28.4755C65.7656 28.5265 67.7048 30.4147 66.531 32.6601Z" fill="white"/>
<path d="M67.1953 35.059C67.1953 35.059 68.8283 31.6908 72.7578 32.9156C72.7068 32.9156 71.5841 36.4368 67.1953 35.059Z" fill="white"/>
<path d="M68.5215 38.2733C68.5215 38.2733 72.6551 36.5893 74.7474 41.0291C74.7474 41.0291 69.6952 41.7946 68.5215 38.2733Z" fill="white"/>
<path d="M65.5621 38.2735C65.5621 38.2735 69.4916 38.4776 69.4916 43.836C69.5426 43.836 64.7966 42.7644 65.5621 38.2735Z" fill="white"/>
<path d="M62.704 37.3555C62.704 37.3555 66.0211 39.6009 63.4184 44.551C63.4184 44.551 60.3565 41.1829 62.704 37.3555Z" fill="white"/>
<path d="M61.3772 36.6914C61.3772 36.6914 57.805 37.2017 57.856 43.0194C57.856 43.0194 61.3772 43.6318 61.3772 36.6914Z" fill="white"/>
<path d="M59.1823 35.8244C59.1823 35.8244 55.8652 35.0589 54.2832 38.1719C54.2832 38.1719 57.9575 38.9374 59.1823 35.8244Z" fill="white"/>
<path d="M80.5656 47.6125C80.5656 47.6125 79.647 42.6114 83.5255 41.4376C83.4744 41.4376 84.4441 45.8264 80.5656 47.6125Z" fill="white"/>
<path d="M81.5859 48.5823C81.5859 48.5823 83.4231 44.1424 88.1691 45.9796C88.1691 45.9796 85.3623 50.0622 81.5859 48.5823Z" fill="white"/>
<path d="M81.1777 49.3984C81.1777 49.3984 86.332 48.5308 88.0161 51.7969C87.965 51.7459 82.7087 52.7665 81.1777 49.3984Z" fill="white"/>
<path d="M91.8434 52.3076C91.8434 52.3076 94.0378 48.8885 91.2821 46.8982C91.2821 46.8982 88.6284 49.5009 91.8434 52.3076Z" fill="white"/>
<path d="M89.3437 39.2946C89.3437 39.2946 86.9452 39.0905 86.1797 41.7442C86.1797 41.7442 89.0885 41.8973 89.3437 39.2946Z" fill="white"/>
<path d="M92.6601 40.417C92.6601 40.417 89.0368 40.6211 89.1388 44.7037C89.1388 44.6527 92.0987 44.3465 92.6601 40.417Z" fill="white"/>
<path d="M94.5991 41.0803C94.5991 41.0803 92.0475 42.152 92.9661 45.9794C92.9151 45.9794 95.4157 45.2649 94.5991 41.0803Z" fill="white"/>
<path d="M95.1601 45.214C95.1601 45.214 92.4554 47.1532 95.1601 51.6951C95.1601 51.6951 97.8648 47.8677 95.1601 45.214Z" fill="white"/>
<path d="M100.723 45.9795C100.723 45.9795 97.4568 46.3877 97.0996 51.0317C97.0996 51.0317 100.468 50.4703 100.723 45.9795Z" fill="white"/>
<path d="M105.009 46.2858C105.009 46.2858 101.335 46.0306 99.957 50.3684C100.008 50.3684 104.703 49.9091 105.009 46.2858Z" fill="white"/>
<path d="M95.7733 41.4376C95.7733 41.4376 98.9373 42.2542 98.8352 46.2857C98.7842 46.2857 95.0078 45.3161 95.7733 41.4376Z" fill="white"/>
<path d="M99.0898 41.7434C99.0898 41.7434 103.734 41.6413 104.55 45.6219C104.55 45.6729 99.8553 45.6729 99.0898 41.7434Z" fill="white"/>
<path d="M104.551 49.3983C104.551 49.3983 106.439 45.4178 110.164 47.2549C110.164 47.2039 108.429 49.9596 104.551 49.3983Z" fill="white"/>
<path d="M101.54 52.0013C101.54 52.0013 104.602 48.8373 108.685 51.0317C108.685 51.0317 105.265 54.1447 101.54 52.0013Z" fill="white"/>
<path d="M98.5283 52.9706C98.5283 52.9706 103.734 52.103 104.907 55.9815C104.907 55.9815 99.9062 57.0532 98.5283 52.9706Z" fill="white"/>
<path d="M95.5693 53.2772C95.5693 53.2772 100.417 55.0634 100.162 58.6867C100.162 58.6867 95.9266 57.8191 95.5693 53.2772Z" fill="white"/>
<path d="M100.621 60.6258C100.621 60.6258 102.203 57.0025 107.102 58.5335C107.051 58.5335 105.01 62.1567 100.621 60.6258Z" fill="white"/>
<path d="M102.152 61.7995C102.152 61.7995 107.358 60.5237 109.603 63.9429C109.603 63.9429 104.092 65.729 102.152 61.7995Z" fill="white"/>
<path d="M107.357 55.9819C107.357 55.9819 111.236 55.8288 112.103 60.7789C112.103 60.7789 107.715 60.3707 107.357 55.9819Z" fill="white"/>
<path d="M105.878 53.8385C105.878 53.8385 109.501 51.8992 111.849 55.5225C111.849 55.4715 107.664 56.9514 105.878 53.8385Z" fill="white"/>
<path d="M101.539 40.6216C101.539 40.6216 105.673 38.4782 107.816 41.6422C107.816 41.5912 103.784 43.4794 101.539 40.6216Z" fill="white"/>
<path d="M100.468 39.907C100.468 39.907 102.101 36.5899 106.03 37.5084C106.03 37.5084 104.244 40.4173 100.468 39.907Z" fill="white"/>
<path d="M98.2228 39.6004C98.2228 39.6004 97.6615 35.2627 102.254 34.4972C102.254 34.4972 101.846 39.0901 98.2228 39.6004Z" fill="white"/>
<path d="M96.0793 39.1927C96.0793 39.1927 94.7524 35.1101 97.7633 33.375C97.7633 33.375 98.733 38.2741 96.0793 39.1927Z" fill="white"/>
<path d="M93.1191 38.4778C93.1191 38.4778 92.2005 35.1097 94.599 33.8339C94.599 33.8339 95.2114 38.0696 93.1191 38.4778Z" fill="white"/>
<path d="M89.8027 37.0488C89.8027 37.0488 90.16 34.4972 92.7116 34.4972C92.7626 34.4972 92.1502 37.8143 89.8027 37.0488Z" fill="white"/>
<path d="M88.3223 33.3747C88.3223 33.3747 90.4146 30.5679 94.2931 32.2519C94.2931 32.2519 91.7414 35.2118 88.3223 33.3747Z" fill="white"/>
<path d="M95.1602 31.1292C95.1602 31.1292 99.8041 28.8838 101.437 32.6602C101.437 32.6602 97.2014 33.7319 95.1602 31.1292Z" fill="white"/>
<path d="M92.5068 30.1084C92.5068 30.1084 93.5785 27.0975 97.0997 27.4037C97.0997 27.4547 96.1812 31.078 92.5068 30.1084Z" fill="white"/>
<path d="M86.8926 32.0481C86.8926 32.0481 88.0663 27.9145 92.302 28.0676C92.302 28.1187 91.4345 32.6605 86.8926 32.0481Z" fill="white"/>
<path d="M84.0859 33.1191C84.0859 33.1191 87.352 33.1191 87.4541 35.8749C87.4541 35.8239 84.239 36.1811 84.0859 33.1191Z" fill="white"/>
<path d="M78.4727 33.0173C78.4727 33.0173 82.096 31.9966 83.3718 35.1606C83.3718 35.1096 79.9016 36.0282 78.4727 33.0173Z" fill="white"/>
<path d="M77.4015 34.0379C77.4015 34.0379 80.1062 35.3138 79.2897 38.3757C79.2386 38.4267 76.2788 37.4061 77.4015 34.0379Z" fill="white"/>
<path d="M94.7527 53.2772C94.7527 53.2772 92.9156 54.1958 93.579 56.9005C93.579 56.9516 95.7734 56.135 94.7527 53.2772Z" fill="white"/>
<path d="M91.1798 58.6862C91.1798 58.6862 87.8627 57.8187 86.791 60.5234C86.842 60.5234 90.4143 61.0847 91.1798 58.6862Z" fill="white"/>
<path d="M93.7318 59.4014C93.7318 59.4014 89.8533 59.4014 89.292 63.7391C89.292 63.7391 92.6601 63.7391 93.7318 59.4014Z" fill="white"/>
<path d="M95.2629 59.8604C95.2629 59.8604 92.0479 63.0244 94.7526 67.5152C94.7016 67.5152 97.9166 63.7388 95.2629 59.8604Z" fill="white"/>
<path d="M97.2535 61.1875C97.2535 61.1875 95.4674 65.5253 98.2741 68.4341C98.2741 68.4341 101.183 64.4536 97.2535 61.1875Z" fill="white"/>
<path d="M99.9579 62.616C99.9579 62.616 99.2945 67.311 104.092 68.7399C104.092 68.791 105.061 64.3001 99.9579 62.616Z" fill="white"/>
<path d="M71.0225 54.7058C68.726 57.2574 66.6847 58.329 66.6847 58.329C66.6847 58.329 66.2254 58.6352 66.2254 59.2476C66.2254 59.86 66.2254 61.2379 65.0517 62.0544C65.0517 62.0544 64.3372 62.8199 64.3372 64.0957C64.3372 64.0957 63.7759 61.2889 61.5815 60.6765C61.5815 60.6765 61.9897 58.7373 61.1732 56.645C61.0712 56.3898 60.9691 56.1347 60.816 55.9305L60.7139 55.7774C61.9387 55.6243 61.7856 53.8382 61.7856 53.8382C60.4588 52.9196 60.4588 51.1845 60.4588 51.1845C59.5402 48.8881 61.3263 48.0205 61.3263 48.0205C61.3263 48.0205 60.5608 46.4895 62.449 46.2344C64.2862 45.9792 64.3372 47.7654 63.929 47.9185C63.929 47.9185 65.6641 48.786 64.9496 50.9294C64.9496 50.9294 65.4599 52.8176 63.5207 53.9403C63.5207 53.9403 63.1124 55.6754 64.6434 56.1347C66.1744 56.645 67.7054 55.3181 67.7054 55.3181C67.7054 55.3181 70.9714 53.0727 71.1245 49.7046C71.1245 49.7046 71.0225 47.3571 72.5024 46.4895C73.9313 45.622 76.687 44.4483 76.8401 40.4677C76.9932 36.4872 73.2679 30.0571 69.7977 29.0365C66.3275 28.0158 62.2959 27.6586 60.765 26.2297C59.234 24.8008 58.5195 23.6781 58.5195 23.6781C58.5195 23.6781 60.6119 26.4338 63.1635 27.0973C65.7151 27.7607 69.0832 28.322 69.0832 28.322C69.0832 28.322 66.0723 23.525 72.9617 21.0244C72.9617 21.0244 66.0213 23.576 70.0018 28.4751C70.0018 28.4751 72.8086 30.1592 75.003 32.9149C75.003 32.9149 74.6458 29.3427 80.1062 26.1276C80.1062 26.1276 74.9519 29.5978 75.6664 33.4763C75.6664 33.4763 77.8098 38.2733 77.5036 41.0291C77.5036 41.0291 82.7089 35.7217 88.2204 37.0996C88.2204 37.0996 89.8024 37.5079 91.4864 38.5795C93.2215 39.6512 98.1717 41.1312 100.774 40.3146C100.774 40.3146 96.6407 42.1518 89.6493 38.4264C89.6493 38.4264 84.3929 35.6707 78.9325 41.3353C78.9325 41.3353 76.4829 43.7848 76.3808 45.571C76.3808 45.571 78.0649 46.3364 79.0345 47.3571C80.0042 48.4288 80.3103 49.0922 80.7696 49.1943C80.7696 49.1943 79.8 49.1943 78.3711 47.5102C78.3711 47.5102 74.8499 44.3972 73.2679 47.8164C73.2679 47.8164 76.1767 48.8881 78.218 50.9804C80.2593 53.0727 81.331 54.1444 83.7295 52.9707C86.077 51.7969 87.8631 52.8686 88.9348 52.7665C90.0065 52.6645 96.2324 53.4299 99.7537 50.9294C99.7537 50.9294 97.9165 53.8382 88.2714 53.2258C88.2714 53.2258 84.6481 53.1748 84.1888 54.0934C83.7295 55.063 85.2094 56.8491 89.19 57.3084C93.1705 57.7677 94.3953 57.9718 94.8546 58.329C95.3649 58.6352 98.1206 60.5745 101.489 61.5441C101.489 61.5441 101.285 62.6158 94.7525 59.0945C94.7525 59.0945 93.6808 58.1249 89.6493 58.1249C85.6177 58.1249 81.8923 55.063 81.8923 55.063C81.8923 55.063 75.105 49.5515 73.7782 49.5515C72.4514 49.5515 72.3493 49.7556 72.1452 50.5211C71.89 51.3376 71.9921 53.583 71.0225 54.7058Z" fill="white"/>
<path d="M62.3477 72.7711C62.0415 74.4552 61.225 74.149 60.7657 75.3737C60.3064 76.5985 60.7147 77.7212 61.0209 78.6398C61.3271 79.6094 60.7147 81.5486 61.276 82.5183C61.4291 82.7734 61.5312 83.0796 61.5822 83.4369H62.0926C61.9905 82.8245 61.7353 82.2121 61.5312 81.3445C61.0719 79.5074 62.3988 77.5681 62.3988 77.5681C62.705 76.9047 62.9601 76.2413 63.1642 75.6289C63.7766 73.5876 63.6746 71.4443 63.0112 69.403C62.1436 66.9024 60.9188 64.9121 60.9188 64.9121C60.1533 65.4224 59.9492 66.9024 59.9492 66.9024C61.7354 66.4431 62.6539 71.1381 62.3477 72.7711Z" fill="white"/>
<path d="M59.8964 67.4135C59.8964 67.4135 58.5185 68.5872 58.7737 72.4657C58.7737 72.4657 58.8758 73.8946 59.3351 75.2214C59.3351 75.2214 59.6413 76.3442 59.7944 76.6503C59.7944 76.6503 59.7944 74.9663 60.3557 74.507C60.9171 74.0477 61.0191 72.5167 61.1212 71.7513C61.1212 71.0878 61.3764 66.7501 59.8964 67.4135Z" fill="white"/>
<path d="M75.8193 34.0379C75.8193 34.0379 78.6261 32.66 78.3199 29.3939C78.3199 29.3939 79.2385 28.1691 79.0344 27.5567C79.0344 27.5567 79.5957 28.5774 78.7282 29.4449C78.6261 29.4449 78.7792 33.4255 75.8193 34.0379Z" fill="#3C5750"/>
<path d="M87.6074 37.0487C87.6074 37.0487 88.8832 35.9771 88.0157 33.6806C88.0157 33.6806 89.3425 36.4364 88.1688 37.508L87.6074 37.0487Z" fill="#3C5750"/>
<path d="M64.5936 82.4172C64.8998 81.3965 65.0018 80.3248 65.206 79.3042C65.4101 78.4366 65.6653 77.5691 65.8694 76.7015C66.2776 74.9154 66.4307 73.1293 66.5328 71.3431C66.6859 69.3018 65.4101 67.7709 65.1039 67.2095C64.7977 66.6482 63.726 64.862 63.4709 63.8414C63.1647 62.8207 62.6544 62.3614 61.7358 62.0042C60.8682 61.698 60.511 60.9325 60.3579 60.4222C60.2048 59.9119 60.0007 58.6871 59.7965 58.432C59.5924 58.1768 59.3372 56.6969 59.2352 56.1355C59.1331 55.5741 58.5207 55.4721 58.5207 55.4721L57.1429 54.8087C54.7954 53.5839 54.7954 50.0627 54.7954 50.0627C54.7954 50.0627 54.2851 52.4612 55.5609 54.1963C55.5609 54.1963 53.0092 54.8087 51.9886 51.8998C50.968 48.991 49.7942 47.409 49.7942 45.7249C49.7942 44.0919 49.488 39.1417 51.3252 37.6108C53.1113 36.0288 54.9485 35.6715 55.4588 35.3143C55.9691 34.9571 59.7455 34.753 61.0213 35.3143C62.2461 35.8757 65.7163 38.3252 68.8803 37.6108C72.0953 36.9473 73.3201 35.3143 73.9835 34.9571C74.698 34.5999 75.0042 34.3957 75.0042 34.3957C75.0042 34.3957 73.5242 34.5488 72.5036 35.4674C71.4829 36.386 66.5838 38.2742 65.308 35.9267C65.308 35.9267 68.472 33.273 69.1355 30.4662C69.1355 30.4662 66.89 35.3143 63.7771 35.3653C63.7771 35.3653 61.6847 35.3143 61.3275 34.855C60.9703 34.3957 57.398 33.7323 55.765 34.3957C54.0809 35.0081 52.2438 34.855 52.2438 34.855C52.2438 34.855 50.2025 30.2621 60.4089 27.6595C60.4089 27.6595 56.4794 27.8636 54.183 29.3946C54.183 29.3946 53.1623 30.4152 52.2948 29.0373C51.4272 27.6595 50.2535 25.414 49.5901 25.2099C49.5901 25.2099 52.4989 29.5987 51.8355 31.4359C51.121 33.273 50.9169 34.3447 50.9169 34.3447C50.9169 34.3447 48.7736 34.4468 46.8854 30.6193C44.9461 26.7919 42.6497 26.5878 42.6497 26.5878C42.6497 26.5878 44.1807 27.2512 45.3544 28.8332C46.4771 30.4152 46.9874 33.6813 49.6921 35.2633C49.6921 35.2633 50.2535 35.5695 49.8963 37.2025C49.539 38.7845 48.7225 41.2341 48.6715 43.8877C48.6715 43.8877 46.0688 41.3361 43.0579 41.7954C40.047 42.2547 36.6279 41.8464 34.0252 35.7736C34.0252 35.7736 35.1479 39.8562 36.9851 40.9789C36.9851 40.9789 35.6072 44.7553 32.137 41.081C32.137 41.081 33.0046 42.714 33.9742 43.0712C33.9742 43.0712 32.9535 44.8574 30.1978 45.0615C30.1978 45.0615 31.9839 45.5718 34.6376 43.5815C37.2403 41.5913 39.2305 42.4078 39.2305 42.4078C39.2305 42.4078 42.3435 42.4078 43.7724 42.3057C45.2013 42.2037 48.7225 45.3677 48.5694 46.8476C48.5694 46.8476 45.6606 47.8172 44.1296 50.3178C42.6497 52.8184 40.0981 51.1343 40.0981 51.1343C40.0981 51.1343 37.2913 50.1647 34.6886 51.9508C32.086 53.737 26.2173 53.6349 24.5332 51.4916C24.5332 51.4916 25.6049 54.0942 31.3205 53.3798C36.9851 52.7163 36.2196 50.2158 41.4249 52.5632C41.4249 52.5632 41.4249 53.9411 39.1284 55.37C36.832 56.7479 37.3934 58.2789 36.6789 59.1464C35.9644 60.014 35.4541 60.9325 33.9231 61.5449C32.3922 62.1573 31.5757 64.0965 31.5757 64.0965C31.5757 64.0965 33.0046 61.9022 35.5562 61.4429C35.5562 61.4429 37.3933 60.4222 37.9037 57.5134C37.9037 57.5134 40.047 54.8597 41.9352 54.7066C41.9352 54.7066 43.0579 56.6969 41.9863 58.9423C40.9146 61.1877 41.6801 61.9021 41.6801 61.9021C41.6801 61.9021 41.629 59.8098 42.9559 57.9216C42.9559 57.9216 43.4662 56.6969 42.5476 53.788C42.5476 53.788 42.5476 53.1246 43.0579 52.6143C43.5683 52.1039 46.7833 47.3069 48.9267 48.7358C48.9267 48.7358 49.8452 49.042 50.2535 50.7261C50.6618 52.4101 51.019 53.3287 51.019 53.3287C51.019 53.3287 49.8963 53.0736 49.2329 53.6859C49.2329 53.6859 50.4576 53.4308 52.8561 54.9107C52.8561 54.9107 54.1319 55.421 54.9485 55.7272C55.765 56.0334 57.1429 57.1051 57.6022 57.4623C58.0614 57.8706 58.4187 57.8706 58.4697 58.1768C58.5718 58.483 58.6228 58.432 58.6228 59.0443C58.6228 59.6567 58.3676 59.7588 58.6228 60.3712C58.878 60.9325 58.8269 60.9325 59.1842 61.3918C59.5414 61.8511 60.6131 63.0249 60.46 64.811C60.46 64.811 60.8682 64.5048 61.1744 64.0455C61.1744 64.0455 63.1136 66.9543 64.0322 69.2508C64.9508 71.5473 65.3591 73.8437 65.0529 75.7829C64.7467 77.6711 63.2667 79.8145 63.2667 79.8145C63.2667 79.8145 62.5012 80.4779 62.8074 82.213C62.9095 82.6723 62.9605 83.1316 62.9605 83.6419H64.3894C64.3894 83.1316 64.4915 82.7744 64.5936 82.4172Z" fill="white"/>
<path d="M0 83.4892C41.9486 83.2341 89.0514 83.2341 131 83.4892C89.0004 83.7444 41.9486 83.7444 0 83.4892Z" fill="#3C5750"/>
<path d="M0 103.187C41.9486 102.932 89.0514 102.932 131 103.187C89.0004 103.494 41.9486 103.443 0 103.187Z" fill="#3C5750"/>
<path d="M18.4233 108.188V111.761H18.015L15.8717 109.107V111.761H15.3613V108.188H15.7696L17.9129 110.842V108.188H18.4233Z" fill="#3C5750"/>
<path d="M20.4127 111.659C20.2086 111.557 20.0044 111.353 19.9024 111.149C19.8003 110.945 19.6982 110.689 19.6982 110.434C19.6982 110.179 19.7493 109.924 19.9024 109.72C20.0555 109.516 20.2086 109.363 20.4127 109.21C20.6168 109.056 20.872 109.056 21.1271 109.056C21.3823 109.056 21.6375 109.107 21.8416 109.21C22.0457 109.312 22.1988 109.516 22.3519 109.72C22.505 109.924 22.556 110.179 22.556 110.434C22.556 110.689 22.505 110.945 22.3519 111.149C22.1988 111.353 22.0457 111.506 21.8416 111.659C21.6375 111.812 21.3823 111.863 21.1271 111.863C20.872 111.863 20.6168 111.761 20.4127 111.659ZM21.5864 111.251C21.7395 111.149 21.8416 111.047 21.8926 110.894C21.9947 110.74 21.9947 110.587 21.9947 110.383C21.9947 110.179 21.9437 110.026 21.8926 109.873C21.7906 109.72 21.6885 109.618 21.5864 109.516C21.4333 109.414 21.2802 109.414 21.1271 109.414C20.9741 109.414 20.821 109.465 20.6679 109.516C20.5148 109.618 20.4127 109.72 20.3617 109.873C20.2596 110.026 20.2596 110.179 20.2596 110.383C20.2596 110.587 20.3106 110.74 20.3617 110.894C20.4637 111.047 20.5658 111.149 20.6679 111.251C20.821 111.353 20.9741 111.353 21.1271 111.353C21.2802 111.353 21.4333 111.353 21.5864 111.251Z" fill="#3C5750"/>
<path d="M26.2821 109.056V111.761H25.8228V111.352C25.7207 111.505 25.5676 111.608 25.4145 111.659C25.2614 111.761 25.0573 111.761 24.9042 111.761C24.547 111.761 24.2408 111.659 24.0367 111.454C23.8325 111.25 23.7305 110.944 23.7305 110.587V109.005H24.2408V110.536C24.2408 110.791 24.2918 110.995 24.4449 111.148C24.547 111.301 24.7511 111.352 25.0063 111.352C25.2614 111.352 25.4656 111.25 25.6187 111.097C25.7718 110.944 25.8228 110.74 25.8228 110.434V109.005H26.2821V109.056Z" fill="#3C5750"/>
<path d="M28.5782 109.158C28.7313 109.056 28.9355 109.056 29.1906 109.056V109.516C29.1396 109.516 29.1396 109.516 29.0886 109.516C28.8334 109.516 28.6293 109.618 28.4762 109.771C28.3231 109.924 28.272 110.179 28.272 110.434V111.812H27.7617V109.107H28.221V109.567C28.272 109.363 28.3741 109.261 28.5782 109.158Z" fill="#3C5750"/>
<path d="M30.314 108.444C30.263 108.393 30.2119 108.291 30.2119 108.24C30.2119 108.138 30.263 108.087 30.314 108.036C30.365 107.985 30.4671 107.934 30.5691 107.934C30.6712 107.934 30.7222 107.985 30.8243 108.036C30.9264 108.087 30.9264 108.189 30.9264 108.24C30.9264 108.342 30.8753 108.393 30.8243 108.495C30.7733 108.597 30.6712 108.597 30.5691 108.597C30.4671 108.597 30.365 108.495 30.314 108.444ZM30.314 109.056H30.8243V111.761H30.314V109.056Z" fill="#3C5750"/>
<path d="M32.3548 111.71C32.1507 111.659 31.9976 111.557 31.8955 111.506L32.0996 111.098C32.2017 111.2 32.3548 111.251 32.5589 111.302C32.7631 111.353 32.9162 111.404 33.0693 111.404C33.4775 111.404 33.7327 111.302 33.7327 111.046C33.7327 110.944 33.6816 110.893 33.6306 110.842C33.5796 110.791 33.4775 110.74 33.4265 110.74C33.3754 110.74 33.2223 110.689 33.0693 110.689C32.8651 110.638 32.661 110.638 32.5589 110.587C32.4058 110.536 32.3038 110.485 32.2017 110.383C32.0996 110.281 32.0486 110.128 32.0486 109.924C32.0486 109.669 32.1507 109.464 32.3548 109.311C32.5589 109.158 32.8141 109.107 33.1713 109.107C33.3754 109.107 33.5285 109.107 33.7327 109.158C33.9368 109.209 34.0389 109.26 34.192 109.362L33.9878 109.771C33.7837 109.618 33.5285 109.567 33.2224 109.567C33.0182 109.567 32.8651 109.618 32.7631 109.669C32.661 109.72 32.61 109.822 32.61 109.924C32.61 110.026 32.661 110.077 32.712 110.128C32.7631 110.179 32.8651 110.23 32.9162 110.23C33.0182 110.23 33.1203 110.281 33.2734 110.332C33.4775 110.383 33.6816 110.434 33.7837 110.434C33.8858 110.434 34.0389 110.536 34.1409 110.638C34.243 110.74 34.294 110.893 34.294 111.046C34.294 111.302 34.192 111.506 33.9878 111.659C33.7837 111.812 33.4775 111.863 33.1203 111.863C32.8141 111.812 32.5589 111.812 32.3548 111.71Z" fill="#3C5750"/>
<path d="M37.6112 109.362C37.8153 109.567 37.9174 109.873 37.9174 110.23V111.812H37.407V110.281C37.407 110.026 37.356 109.822 37.2029 109.669C37.1008 109.516 36.8967 109.465 36.6415 109.465C36.3864 109.465 36.1823 109.567 36.0292 109.72C35.8761 109.873 35.774 110.077 35.774 110.383V111.761H35.2637V107.934H35.774V109.414C35.8761 109.26 36.0292 109.158 36.1823 109.107C36.3354 109.056 36.5395 109.005 36.7436 109.005C37.1008 109.056 37.407 109.158 37.6112 109.362Z" fill="#3C5750"/>
<path d="M39.3462 108.444C39.2952 108.393 39.2441 108.291 39.2441 108.24C39.2441 108.138 39.2952 108.087 39.3462 108.036C39.3972 107.985 39.4993 107.934 39.6014 107.934C39.7034 107.934 39.7545 107.985 39.8565 108.036C39.9586 108.087 39.9586 108.189 39.9586 108.24C39.9586 108.342 39.9076 108.393 39.8565 108.495C39.8055 108.597 39.7034 108.597 39.6014 108.597C39.4993 108.597 39.3972 108.495 39.3462 108.444ZM39.2952 109.056H39.8055V111.761H39.2952V109.056Z" fill="#3C5750"/>
<path d="M43.5311 109.363C43.7352 109.567 43.8373 109.873 43.8373 110.23V111.812H43.327V110.281C43.327 110.026 43.2759 109.822 43.1228 109.669C43.0208 109.516 42.8166 109.465 42.5615 109.465C42.3063 109.465 42.1022 109.567 41.9491 109.72C41.796 109.873 41.6939 110.077 41.6939 110.383V111.761H41.1836V109.056H41.6429V109.465C41.7449 109.312 41.8981 109.21 42.0511 109.158C42.2042 109.107 42.4084 109.056 42.6125 109.056C43.0718 109.056 43.327 109.158 43.5311 109.363Z" fill="#3C5750"/>
<path d="M47.8688 109.056V111.404C47.8688 111.863 47.7667 112.22 47.5116 112.476C47.2564 112.68 46.8992 112.833 46.4399 112.833C46.1847 112.833 45.9296 112.782 45.7254 112.731C45.4703 112.68 45.3172 112.578 45.1641 112.425L45.4193 112.067C45.5213 112.169 45.7255 112.271 45.8786 112.322C46.0316 112.374 46.2358 112.425 46.4399 112.425C46.7461 112.425 47.0013 112.374 47.1544 112.22C47.3075 112.067 47.3585 111.863 47.3585 111.557V111.353C47.2564 111.506 47.1033 111.608 46.9502 111.659C46.7971 111.71 46.593 111.761 46.3889 111.761C46.1337 111.761 45.8786 111.71 45.6744 111.608C45.4703 111.506 45.3172 111.353 45.1641 111.149C45.062 110.945 44.96 110.74 44.96 110.485C44.96 110.23 45.011 110.026 45.1641 109.822C45.2662 109.618 45.4703 109.465 45.6744 109.363C45.8786 109.261 46.1337 109.21 46.3889 109.21C46.593 109.21 46.7971 109.261 46.9502 109.312C47.1033 109.363 47.2564 109.516 47.3585 109.669V109.261H47.8688V109.056ZM46.9502 111.149C47.1033 111.098 47.2054 110.945 47.3075 110.843C47.4095 110.74 47.4095 110.536 47.4095 110.383C47.4095 110.128 47.3075 109.924 47.1544 109.72C47.0013 109.567 46.7461 109.465 46.4909 109.465C46.2358 109.465 45.9806 109.567 45.8275 109.72C45.6744 109.873 45.5724 110.077 45.5724 110.383C45.5724 110.536 45.6234 110.689 45.6744 110.843C45.7255 110.996 45.8785 111.098 46.0316 111.149C46.1847 111.2 46.3378 111.251 46.4909 111.251C46.644 111.251 46.7971 111.2 46.9502 111.149Z" fill="#3C5750"/>
<path d="M54.4008 108.188V111.761H53.9926L51.8492 109.107V111.761H51.3389V108.188H51.7471L53.8905 110.842V108.188H54.4008Z" fill="#3C5750"/>
<path d="M57.7688 109.312C57.973 109.516 58.075 109.771 58.075 110.128V111.761H57.6157V111.455C57.5137 111.557 57.4116 111.659 57.2585 111.761C57.1054 111.812 56.9013 111.863 56.6972 111.863C56.391 111.863 56.1358 111.812 55.9827 111.659C55.8296 111.506 55.7275 111.302 55.7275 111.098C55.7275 110.843 55.8296 110.689 55.9827 110.536C56.1358 110.383 56.442 110.332 56.7992 110.332H57.5647V110.23C57.5647 110.026 57.5137 109.873 57.3606 109.72C57.2585 109.618 57.0544 109.567 56.7992 109.567C56.6461 109.567 56.493 109.618 56.3399 109.669C56.1868 109.72 56.0337 109.771 55.9317 109.873L55.7786 109.414C55.9317 109.312 56.0848 109.21 56.2889 109.158C56.493 109.107 56.6972 109.056 56.9013 109.056C57.2585 109.056 57.5647 109.158 57.7688 109.312ZM57.2585 111.302C57.4116 111.2 57.5137 111.098 57.5647 110.945V110.587H56.7992C56.391 110.587 56.1868 110.74 56.1868 110.996C56.1868 111.149 56.2379 111.251 56.3399 111.302C56.442 111.353 56.5951 111.404 56.7992 111.404C56.9523 111.455 57.1054 111.404 57.2585 111.302Z" fill="#3C5750"/>
<path d="M61.0354 111.608C60.9844 111.659 60.8823 111.71 60.7802 111.761C60.6782 111.812 60.5761 111.812 60.4741 111.812C60.2189 111.812 59.9637 111.761 59.8617 111.608C59.7596 111.455 59.6575 111.251 59.6575 110.996V109.516H59.1982V109.107H59.6575V108.495H60.1679V109.107H60.9333V109.516H60.1679V110.996C60.1679 111.149 60.2189 111.251 60.2699 111.353C60.3209 111.455 60.474 111.455 60.5761 111.455C60.7292 111.455 60.8313 111.404 60.9844 111.302L61.0354 111.608Z" fill="#3C5750"/>
<path d="M64.6581 109.056V111.761H64.1988V111.352C64.0967 111.505 63.9436 111.608 63.7905 111.659C63.6374 111.761 63.4333 111.761 63.2802 111.761C62.923 111.761 62.6168 111.659 62.4126 111.454C62.2085 111.25 62.1064 110.944 62.1064 110.587V109.005H62.6168V110.536C62.6168 110.791 62.6678 110.995 62.8209 111.148C62.923 111.301 63.1271 111.352 63.3823 111.352C63.6374 111.352 63.8416 111.25 63.9946 111.097C64.1477 110.944 64.1988 110.74 64.1988 110.434V109.005H64.6581V109.056Z" fill="#3C5750"/>
<path d="M66.9542 109.158C67.1073 109.056 67.3114 109.056 67.5666 109.056V109.516C67.5156 109.516 67.5156 109.516 67.4645 109.516C67.2094 109.516 67.0053 109.618 66.8522 109.771C66.6991 109.924 66.648 110.179 66.648 110.434V111.812H66.1377V109.107H66.597V109.567C66.648 109.363 66.8011 109.261 66.9542 109.158Z" fill="#3C5750"/>
<path d="M71.0888 110.587H68.8944C68.9454 110.842 69.0475 110.995 69.2005 111.148C69.4047 111.301 69.6088 111.352 69.864 111.352C70.1702 111.352 70.4253 111.25 70.6295 111.046L70.8846 111.352C70.7826 111.505 70.6295 111.608 70.4253 111.659C70.2212 111.71 70.0171 111.761 69.8129 111.761C69.5067 111.761 69.2516 111.71 69.0475 111.608C68.8433 111.505 68.6392 111.301 68.5371 111.097C68.4351 110.893 68.333 110.638 68.333 110.383C68.333 110.128 68.384 109.872 68.4861 109.668C68.5882 109.464 68.7413 109.311 68.9964 109.158C69.2516 109.005 69.4557 109.005 69.7109 109.005C69.966 109.005 70.2212 109.056 70.4253 109.158C70.6295 109.26 70.7826 109.464 70.8846 109.668C70.9867 109.872 71.0377 110.128 71.0377 110.383C71.0887 110.485 71.0888 110.536 71.0888 110.587ZM69.2005 109.668C69.0475 109.821 68.9454 109.974 68.9454 110.23H70.6805C70.6295 110.026 70.5784 109.821 70.4253 109.668C70.2722 109.515 70.0681 109.464 69.8129 109.464C69.5578 109.464 69.3536 109.515 69.2005 109.668Z" fill="#3C5750"/>
<path d="M72.6698 111.2C72.7208 111.251 72.7718 111.353 72.7718 111.455C72.7718 111.506 72.7718 111.557 72.7718 111.608C72.7718 111.659 72.7208 111.71 72.7208 111.812L72.4656 112.527H72.1084L72.3125 111.761C72.2615 111.761 72.2105 111.71 72.1594 111.659C72.1084 111.608 72.1084 111.557 72.1084 111.455C72.1084 111.353 72.1594 111.251 72.2105 111.2C72.2615 111.149 72.3636 111.098 72.4656 111.098C72.5167 111.098 72.6187 111.149 72.6698 111.2Z" fill="#3C5750"/>
<path d="M78.5392 111.353V111.812H75.9365V108.24H78.4881V108.7H76.4468V109.822H78.233V110.282H76.4468V111.455H78.5392V111.353Z" fill="#3C5750"/>
<path d="M79.8145 107.984H80.3248V111.812H79.8145V107.984Z" fill="#3C5750"/>
<path d="M84.203 110.587H82.0086C82.0597 110.842 82.1617 110.995 82.3148 111.148C82.519 111.301 82.7231 111.352 82.9782 111.352C83.2844 111.352 83.5396 111.25 83.7437 111.046L83.9989 111.352C83.8968 111.505 83.7437 111.608 83.5396 111.659C83.3355 111.71 83.1313 111.761 82.9272 111.761C82.621 111.761 82.3659 111.71 82.1617 111.608C81.9576 111.505 81.7535 111.301 81.6514 111.097C81.5493 110.893 81.4473 110.638 81.4473 110.383C81.4473 110.128 81.4983 109.872 81.6004 109.668C81.7024 109.464 81.8555 109.311 82.1107 109.158C82.3659 109.005 82.57 109.005 82.8251 109.005C83.0803 109.005 83.3355 109.056 83.5396 109.158C83.7437 109.26 83.8968 109.464 83.9989 109.668C84.1009 109.872 84.152 110.128 84.152 110.383C84.203 110.485 84.203 110.536 84.203 110.587ZM82.2638 109.668C82.1107 109.821 82.0086 109.974 82.0086 110.23H83.7437C83.6927 110.026 83.6417 109.821 83.4886 109.668C83.3355 109.515 83.1313 109.464 82.8762 109.464C82.621 109.464 82.4679 109.515 82.2638 109.668Z" fill="#3C5750"/>
<path d="M87.7758 109.056L86.602 111.761H86.0917L84.918 109.056H85.4283L86.3469 111.251L87.3165 109.056H87.7758Z" fill="#3C5750"/>
<path d="M90.5315 109.311C90.7357 109.516 90.8377 109.771 90.8377 110.128V111.761H90.3784V111.455C90.2764 111.557 90.1743 111.659 90.0212 111.761C89.8681 111.812 89.664 111.863 89.4598 111.863C89.1537 111.863 88.8985 111.812 88.7454 111.659C88.5923 111.506 88.4902 111.302 88.4902 111.098C88.4902 110.842 88.5923 110.689 88.7454 110.536C88.8985 110.383 89.2047 110.332 89.5619 110.332H90.3274V110.23C90.3274 110.026 90.2764 109.873 90.1233 109.72C90.0212 109.618 89.8171 109.567 89.5619 109.567C89.4088 109.567 89.2557 109.618 89.1026 109.669C88.9495 109.72 88.7964 109.771 88.6944 109.873L88.4902 109.516C88.6433 109.413 88.7964 109.311 89.0006 109.26C89.2047 109.209 89.4088 109.158 89.6129 109.158C90.0212 109.056 90.3274 109.158 90.5315 109.311ZM90.0212 111.302C90.1743 111.2 90.2764 111.098 90.3274 110.944V110.587H89.5619C89.1537 110.587 88.9495 110.74 88.9495 110.995C88.9495 111.149 89.0005 111.251 89.1026 111.302C89.2047 111.353 89.3578 111.404 89.5619 111.404C89.766 111.404 89.8681 111.404 90.0212 111.302Z" fill="#3C5750"/>
<path d="M93.7463 111.608C93.6953 111.659 93.5932 111.71 93.4912 111.761C93.3891 111.812 93.2871 111.812 93.185 111.812C92.9298 111.812 92.6747 111.761 92.5726 111.608C92.4705 111.455 92.3685 111.251 92.3685 110.996V109.516H91.9092V109.107H92.3685V108.495H92.8788V109.107H93.6443V109.516H92.8788V110.996C92.8788 111.149 92.9298 111.251 92.9809 111.353C93.0319 111.455 93.185 111.455 93.2871 111.455C93.4402 111.455 93.5422 111.404 93.6953 111.302L93.7463 111.608Z" fill="#3C5750"/>
<path d="M94.8696 108.444C94.8186 108.393 94.7676 108.291 94.7676 108.24C94.7676 108.138 94.8186 108.087 94.8696 108.036C94.9207 107.985 95.0227 107.934 95.1248 107.934C95.2269 107.934 95.2779 107.985 95.38 108.036C95.482 108.087 95.482 108.189 95.482 108.24C95.482 108.342 95.431 108.393 95.38 108.495C95.3289 108.597 95.2269 108.597 95.1248 108.597C95.0227 108.597 94.9717 108.495 94.8696 108.444ZM94.8696 109.056H95.38V111.761H94.8696V109.056Z" fill="#3C5750"/>
<path d="M99.1053 109.363C99.3094 109.567 99.4115 109.873 99.4115 110.23V111.812H98.9012V110.281C98.9012 110.026 98.8501 109.822 98.6971 109.669C98.595 109.516 98.3909 109.465 98.1357 109.465C97.8805 109.465 97.6764 109.567 97.5233 109.72C97.3702 109.873 97.2681 110.077 97.2681 110.383V111.761H96.7578V109.056H97.2171V109.465C97.3192 109.312 97.4723 109.21 97.6254 109.158C97.7785 109.107 97.9826 109.056 98.1867 109.056C98.595 109.056 98.9012 109.158 99.1053 109.363Z" fill="#3C5750"/>
<path d="M103.443 109.056V111.404C103.443 111.863 103.341 112.22 103.086 112.476C102.831 112.68 102.473 112.833 102.014 112.833C101.759 112.833 101.504 112.782 101.3 112.731C101.045 112.68 100.891 112.578 100.738 112.425L100.993 112.067C101.096 112.169 101.3 112.271 101.453 112.322C101.606 112.374 101.81 112.425 102.014 112.425C102.32 112.425 102.575 112.374 102.729 112.22C102.882 112.067 102.933 111.863 102.933 111.557V111.353C102.831 111.506 102.678 111.608 102.524 111.659C102.371 111.71 102.167 111.761 101.963 111.761C101.708 111.761 101.453 111.71 101.249 111.608C101.044 111.506 100.891 111.353 100.738 111.149C100.585 110.945 100.534 110.74 100.534 110.485C100.534 110.23 100.585 110.026 100.738 109.822C100.84 109.618 101.044 109.465 101.249 109.363C101.453 109.261 101.708 109.21 101.963 109.21C102.167 109.21 102.371 109.261 102.524 109.312C102.678 109.363 102.831 109.516 102.933 109.669V109.261H103.443V109.056ZM102.524 111.149C102.678 111.098 102.78 110.945 102.882 110.843C102.984 110.74 102.984 110.536 102.984 110.383C102.984 110.128 102.882 109.924 102.729 109.72C102.575 109.516 102.32 109.465 102.065 109.465C101.81 109.465 101.555 109.567 101.402 109.72C101.249 109.873 101.147 110.077 101.147 110.383C101.147 110.536 101.198 110.689 101.249 110.843C101.3 110.996 101.453 111.098 101.606 111.149C101.759 111.2 101.912 111.251 102.065 111.251C102.218 111.251 102.371 111.2 102.524 111.149Z" fill="#3C5750"/>
<path d="M106.76 107.984H107.27V111.812H106.76V107.984Z" fill="#3C5750"/>
<path d="M108.75 108.444C108.698 108.393 108.647 108.291 108.647 108.24C108.647 108.138 108.698 108.087 108.75 108.036C108.801 107.985 108.903 107.934 109.005 107.934C109.107 107.934 109.158 107.985 109.26 108.036C109.362 108.087 109.362 108.189 109.362 108.24C109.362 108.342 109.311 108.393 109.26 108.495C109.209 108.597 109.107 108.597 109.005 108.597C108.903 108.597 108.801 108.495 108.75 108.444ZM108.75 109.056H109.26V111.761H108.75V109.056Z" fill="#3C5750"/>
<path d="M111.2 108.852V109.107H111.966V109.516H111.2V111.812H110.69V109.516H110.23V109.107H110.69V108.852C110.69 108.597 110.792 108.393 110.945 108.189C111.098 108.036 111.302 107.934 111.608 107.934C111.71 107.934 111.812 107.934 111.915 107.985C112.017 108.036 112.068 108.036 112.17 108.087L112.017 108.444C111.915 108.342 111.761 108.291 111.659 108.291C111.353 108.342 111.2 108.495 111.2 108.852Z" fill="#3C5750"/>
<path d="M115.385 110.587H113.19C113.241 110.842 113.343 110.995 113.496 111.148C113.701 111.301 113.905 111.352 114.16 111.352C114.466 111.352 114.721 111.25 114.925 111.046L115.181 111.352C115.078 111.505 114.925 111.608 114.721 111.659C114.517 111.71 114.313 111.761 114.109 111.761C113.803 111.761 113.547 111.71 113.343 111.608C113.139 111.505 112.935 111.301 112.833 111.097C112.731 110.893 112.629 110.638 112.629 110.383C112.629 110.128 112.68 109.872 112.782 109.668C112.884 109.464 113.037 109.311 113.292 109.158C113.547 109.005 113.752 109.005 114.007 109.005C114.262 109.005 114.517 109.056 114.721 109.158C114.925 109.26 115.078 109.464 115.181 109.668C115.283 109.872 115.334 110.128 115.334 110.383C115.385 110.485 115.385 110.536 115.385 110.587ZM113.496 109.668C113.343 109.821 113.241 109.974 113.241 110.23H114.976C114.925 110.026 114.874 109.821 114.721 109.668C114.568 109.515 114.364 109.464 114.109 109.464C113.854 109.464 113.65 109.515 113.496 109.668Z" fill="#3C5750"/>
</svg>
