<svg width="187" height="162" viewBox="0 0 187 162" fill="none" xmlns="http://www.w3.org/2000/svg">
<path d="M18.2834 131.199C18.2834 134.404 18.4291 137.1 18.502 137.682C18.5748 138.629 18.7934 139.066 19.449 139.066H19.9589C20.1046 139.066 20.1046 139.139 20.1046 139.212V139.649C20.1046 139.795 20.1046 139.795 19.9589 139.795C19.7404 139.795 18.6477 139.722 17.9192 139.722C17.4093 139.722 16.1709 139.795 15.9523 139.795C15.8795 139.795 15.8066 139.722 15.8066 139.649V139.139C15.8066 139.066 15.8795 138.994 15.9523 138.994H16.6079C17.1179 138.994 17.3364 138.557 17.4821 137.391C17.4821 137.027 17.6278 134.404 17.6278 131.345V128.941C17.6278 127.775 16.9722 126.901 16.1709 126.901H15.5881C15.5152 126.901 15.4424 126.828 15.4424 126.755V126.245C15.4424 126.172 15.5152 126.1 15.5881 126.1C15.6609 126.1 15.8066 126.1 16.1709 126.172C16.5351 126.172 17.045 126.172 17.8464 126.172C18.1377 126.172 18.4291 126.172 18.6477 126.1C18.8662 126.1 19.0848 126.1 19.1576 126.1C19.3762 126.1 19.5219 126.172 19.5947 126.245C19.8133 126.464 23.5285 131.126 23.8927 131.636C24.1841 131.927 27.098 135.643 27.3894 136.007H27.4622V134.04C27.4622 132.365 27.4623 131.417 27.3894 130.47C27.3166 129.742 27.2437 127.921 27.1709 127.557C27.0252 127.119 26.5881 126.828 26.151 126.828H25.5682C25.4225 126.828 25.4225 126.755 25.4225 126.682V126.245C25.4225 126.1 25.4225 126.1 25.5682 126.1C25.7868 126.1 26.3695 126.172 27.6808 126.172C28.8464 126.172 29.2834 126.1 29.502 126.1C29.6477 126.1 29.7205 126.172 29.7205 126.245V126.682C29.7205 126.828 29.6477 126.901 29.5748 126.901H29.0649C28.7007 126.901 28.4821 127.192 28.4093 127.921C28.3364 129.232 28.1179 132.437 28.1179 134.331V139.358C28.1179 139.649 28.1179 139.868 27.8993 139.868C27.6079 139.868 27.3894 139.722 27.2437 139.576C27.098 139.358 26.0781 138.192 24.9126 136.808C23.6013 135.206 22.0715 133.384 21.853 133.093C21.5616 132.802 18.5748 129.014 18.3563 128.795H18.2106V131.199H18.2834Z" fill="#5EA087"/>
<path d="M33.072 134.55C32.9263 134.987 31.9793 137.682 31.9065 138.192C31.8336 138.338 31.8336 138.483 31.8336 138.556C31.8336 138.775 32.125 138.993 32.4892 138.993H33.2906C33.4363 138.993 33.5091 139.066 33.5091 139.066V139.576C33.5091 139.722 33.4363 139.795 33.3634 139.795C33.072 139.795 32.2707 139.722 30.9594 139.722C29.5753 139.722 29.1383 139.795 28.8469 139.795C28.7012 139.795 28.7012 139.649 28.7012 139.576V139.212C28.7012 139.066 28.774 139.066 28.8469 139.066H29.4296C29.9396 139.066 30.3038 138.775 30.6681 138.192C30.8866 137.828 32.1979 134.404 32.7806 132.874L34.6747 127.92C34.7475 127.702 34.8204 127.41 34.7475 127.265C34.6747 127.192 34.6018 127.119 34.6018 127.046C34.6018 126.973 34.6747 126.901 34.8204 126.828C35.4032 126.682 36.4959 126.099 36.7144 125.881C36.8601 125.735 36.933 125.662 37.0058 125.662C37.1515 125.662 37.2243 125.881 37.2243 126.026C37.5886 127.192 39.0455 131.49 39.4098 132.655C39.8469 134.112 41.0853 137.682 41.3767 138.192C41.7409 138.848 42.178 139.066 42.6151 139.066H43.1979C43.3436 139.066 43.3435 139.139 43.3435 139.212V139.576C43.3435 139.722 43.2707 139.795 43.125 139.795C42.7608 139.795 42.3965 139.722 40.2839 139.722C38.6813 139.722 38.0257 139.795 37.6614 139.795C37.5157 139.795 37.4429 139.649 37.4429 139.576V139.212C37.4429 139.066 37.5157 139.066 37.5886 139.066H38.0985C38.6085 139.066 38.7541 138.848 38.6813 138.338C38.5356 137.682 37.7343 135.205 37.5157 134.55H33.072ZM37.2972 133.748C37.0786 133.165 35.8402 128.867 35.6945 128.503C35.6217 128.285 35.5488 128.139 35.476 128.139C35.3303 128.139 35.2575 128.212 35.2575 128.357C35.1846 128.576 33.5091 133.311 33.3634 133.675H37.2972V133.748Z" fill="#5EA087"/>
<path d="M45.4563 131.199C45.4563 134.404 45.602 137.1 45.6748 137.682C45.7477 138.629 45.9662 139.066 46.6219 139.066H47.1318C47.2775 139.066 47.2775 139.139 47.2775 139.212V139.649C47.2775 139.795 47.2775 139.795 47.1318 139.795C46.9132 139.795 45.8205 139.722 45.0921 139.722C44.5821 139.722 43.2709 139.795 43.1252 139.795C43.0523 139.795 42.9795 139.722 42.9795 139.649V139.139C42.9795 139.066 43.0523 138.994 43.1252 138.994H43.7808C44.2907 138.994 44.5093 138.557 44.655 137.391C44.655 137.027 44.8007 134.404 44.8007 131.345V128.941C44.8007 127.775 44.145 126.901 43.3437 126.901H42.7609C42.6881 126.901 42.6152 126.828 42.6152 126.755V126.245C42.6152 126.172 42.6881 126.1 42.7609 126.1C42.8338 126.1 42.9795 126.1 43.3437 126.172C43.7079 126.172 44.2179 126.172 45.0192 126.172C45.3106 126.172 45.602 126.172 45.8205 126.1C46.0391 126.1 46.2576 126.1 46.3305 126.1C46.549 126.1 46.6947 126.172 46.7675 126.245C46.9861 126.464 50.7013 131.126 51.0656 131.636C51.357 131.927 54.2709 135.643 54.5623 136.007H54.6351V134.04C54.6351 132.365 54.6351 131.417 54.5623 130.47C54.4894 129.742 54.4166 127.921 54.3437 127.557C54.198 127.119 53.7609 126.828 53.3238 126.828H52.7411C52.5954 126.828 52.5954 126.755 52.5954 126.682V126.245C52.5954 126.1 52.5954 126.1 52.7411 126.1C52.9596 126.1 53.5424 126.172 54.8536 126.172C56.0192 126.172 56.4563 126.1 56.6748 126.1C56.8205 126.1 56.8934 126.172 56.8934 126.245V126.682C56.8934 126.828 56.8205 126.901 56.7477 126.901H56.3106C55.9464 126.901 55.7278 127.192 55.655 127.921C55.5821 129.232 55.3636 132.437 55.3636 134.331V139.358C55.3636 139.649 55.3636 139.868 55.145 139.868C54.8536 139.868 54.6351 139.722 54.4894 139.576C54.3437 139.358 53.3238 138.192 52.1583 136.808C50.847 135.206 49.3172 133.384 49.0987 133.093C48.8073 132.802 45.8205 129.014 45.602 128.795H45.4563V131.199Z" fill="#5EA087"/>
<path d="M60.2439 134.55C60.0982 134.987 59.1512 137.682 59.0783 138.192C59.0055 138.338 59.0055 138.483 59.0055 138.556C59.0055 138.775 59.2969 138.993 59.6611 138.993H60.4625C60.6082 138.993 60.681 139.066 60.681 139.066V139.576C60.681 139.722 60.6081 139.795 60.5353 139.795C60.2439 139.795 59.4426 139.722 58.1313 139.722C56.7472 139.722 56.3101 139.795 56.0188 139.795C55.8731 139.795 55.873 139.649 55.873 139.576V139.212C55.873 139.066 55.9459 139.066 56.0188 139.066H56.6015C57.1115 139.066 57.4757 138.775 57.8399 138.192C58.0585 137.828 59.3697 134.404 59.9525 132.874L61.8466 127.92C61.9194 127.702 61.9923 127.41 61.9194 127.265C61.8466 127.192 61.7737 127.119 61.7737 127.046C61.7737 126.973 61.8466 126.901 61.9922 126.828C62.575 126.682 63.6677 126.099 63.8863 125.881C64.032 125.735 64.1048 125.662 64.1777 125.662C64.3234 125.662 64.3962 125.881 64.3962 126.026C64.7605 127.192 66.2174 131.49 66.5817 132.655C67.0187 134.112 68.2571 137.682 68.5485 138.192C68.9128 138.848 69.3499 139.066 69.787 139.066H70.3697C70.5154 139.066 70.5154 139.139 70.5154 139.212V139.576C70.5154 139.722 70.4426 139.795 70.2969 139.795C69.9327 139.795 69.5684 139.722 67.4558 139.722C65.8532 139.722 65.1976 139.795 64.8333 139.795C64.6876 139.795 64.6148 139.649 64.6148 139.576V139.212C64.6148 139.066 64.6876 139.066 64.7605 139.066H65.2704C65.7803 139.066 65.926 138.848 65.8532 138.338C65.7075 137.682 64.9062 135.205 64.6876 134.55H60.2439ZM64.4691 133.748C64.2505 133.165 63.0121 128.867 62.8664 128.503C62.7936 128.285 62.7207 128.139 62.6479 128.139C62.5022 128.139 62.4293 128.212 62.4293 128.357C62.3565 128.576 60.681 133.311 60.5353 133.675H64.4691V133.748Z" fill="#5EA087"/>
<path d="M85.0125 127.555C86.4694 128.721 87.5621 130.615 87.5621 133.164C87.5621 134.549 87.1979 136.078 86.178 137.317C84.9396 138.847 83.337 140.012 80.4959 140.012C79.3304 140.012 77.7277 139.648 76.1979 138.774C74.8138 137.972 73.4297 135.86 73.4297 133.164C73.4297 131.999 73.7211 130.251 75.178 128.429C76.8535 126.39 78.8933 126.025 80.4959 126.025C81.9529 126.025 83.4827 126.317 85.0125 127.555ZM77.7277 127.919C76.5621 129.012 76.0522 130.979 76.0522 132.509C76.0522 137.462 79.1118 139.211 80.7145 139.211C84.5754 139.211 85.1582 134.986 85.1582 133.383C85.1582 129.231 82.3171 126.9 80.4959 126.9C80.1317 126.827 79.039 126.681 77.7277 127.919Z" fill="#5EA087"/>
<path d="M92.3701 134.768C92.3701 135.933 92.443 138.046 92.443 138.337C92.5158 138.702 92.6615 139.066 92.9529 139.066H93.8999C94.0456 139.066 94.0456 139.139 94.0456 139.212V139.649C94.0456 139.794 93.9728 139.794 93.8271 139.794C93.6085 139.794 93.1714 139.722 91.2046 139.722C89.3105 139.722 88.8734 139.794 88.7277 139.794C88.582 139.794 88.582 139.722 88.582 139.649V139.212C88.582 139.139 88.6549 139.066 88.7277 139.066H89.3834C89.8204 139.066 90.1118 138.92 90.1118 138.41C90.1847 136.516 90.1847 134.695 90.1847 132.947V127.92C90.1847 127.265 89.8933 126.973 89.6019 126.973H88.8734C88.8006 126.973 88.7277 126.9 88.7277 126.828V126.318C88.7277 126.245 88.8006 126.172 88.8734 126.172C89.0191 126.172 89.6019 126.245 91.4959 126.245C92.5887 126.245 94.337 126.172 94.8469 126.172C96.3767 126.172 97.5423 126.682 98.2708 127.337C98.9264 127.92 99.2906 128.722 99.2906 129.45C99.2906 131.854 97.8337 132.801 95.794 133.165V133.238C96.3039 133.457 96.6681 133.748 96.9595 134.112C97.1781 134.404 98.3436 136.225 98.4893 136.443C98.635 136.662 99.8006 138.337 100.092 138.629C100.456 138.92 100.966 138.993 101.476 138.993C101.622 138.993 101.622 139.066 101.622 139.139V139.503C101.622 139.649 101.549 139.722 101.476 139.722C101.33 139.722 100.82 139.649 99.582 139.649C99.0721 139.649 98.3436 139.722 97.9065 139.722C97.688 139.576 97.3238 139.066 97.1052 138.629C96.741 138.119 96.0125 136.735 95.8668 136.443C95.6483 136.079 95.1383 135.205 94.8469 134.841C94.337 134.185 93.8999 133.675 93.1714 133.675C93.0986 133.675 92.8072 133.675 92.5887 133.748V134.768H92.3701ZM92.443 133.092C92.7344 133.165 92.9529 133.165 93.1714 133.165C96.1582 133.165 96.741 130.761 96.741 129.887C96.741 129.013 96.3767 128.212 95.9397 127.775C95.284 127.192 94.4099 126.973 93.4628 126.973C93.1714 126.973 92.9529 126.973 92.8072 127.119C92.6615 127.192 92.5887 127.41 92.5887 127.702L92.443 133.092Z" fill="#5EA087"/>
<path d="M113.787 137.9C113.787 138.192 113.86 138.337 113.86 138.483C113.86 138.629 113.714 138.701 113.568 138.774C112.039 139.576 110.436 140.013 108.178 140.013C106.284 140.013 104.025 139.357 102.714 137.827C101.549 136.516 100.966 134.913 100.966 132.655C100.966 130.907 101.694 129.086 103.151 127.847C104.535 126.609 106.284 125.953 108.542 125.953C110.363 125.953 111.82 126.536 112.403 126.973C112.621 127.119 112.767 127.119 112.84 126.9L113.059 126.609C113.131 126.463 113.204 126.39 113.35 126.39C113.568 126.39 113.568 126.536 113.568 126.682L113.787 130.47C113.787 130.615 113.787 130.688 113.714 130.761L113.277 130.834C113.131 130.834 113.131 130.761 113.059 130.688C112.767 129.96 112.33 128.867 111.529 128.066C110.873 127.41 109.853 126.754 108.396 126.754C107.231 126.754 106.211 127.046 105.191 128.211C104.244 129.231 103.661 130.834 103.661 132.509C103.661 134.768 104.244 136.662 105.337 137.754C106.284 138.629 107.158 139.066 108.396 139.066C109.635 139.066 110.363 138.92 110.946 138.556C111.383 138.337 111.383 137.827 111.383 136.807V135.423C111.383 134.768 111.165 134.549 110.727 134.549H109.926C109.78 134.549 109.78 134.476 109.78 134.403V133.966C109.78 133.821 109.853 133.821 109.926 133.821C110.145 133.821 111.092 133.894 112.621 133.894C114.224 133.894 114.88 133.821 115.025 133.821C115.171 133.821 115.244 133.894 115.244 133.966V134.476C115.244 134.622 115.171 134.622 115.098 134.622H114.443C114.078 134.622 113.86 134.768 113.86 135.35V137.9H113.787Z" fill="#5EA087"/>
<path d="M118.886 134.55C118.741 134.987 117.794 137.682 117.721 138.192C117.648 138.338 117.648 138.483 117.648 138.556C117.648 138.775 117.939 138.993 118.304 138.993H119.105C119.251 138.993 119.324 139.066 119.324 139.066V139.576C119.324 139.722 119.251 139.795 119.178 139.795C118.886 139.795 118.085 139.722 116.774 139.722C115.39 139.722 114.953 139.795 114.661 139.795C114.516 139.795 114.516 139.649 114.516 139.576V139.212C114.516 139.066 114.588 139.066 114.661 139.066H115.244C115.754 139.066 116.118 138.775 116.483 138.192C116.701 137.828 118.012 134.404 118.595 132.874L120.489 127.92C120.562 127.702 120.635 127.41 120.562 127.265C120.489 127.192 120.416 127.119 120.416 127.046C120.416 126.973 120.489 126.901 120.635 126.828C121.218 126.682 122.31 126.099 122.529 125.881C122.675 125.735 122.747 125.662 122.82 125.662C122.966 125.662 123.039 125.881 123.039 126.026C123.403 127.192 124.86 131.49 125.224 132.655C125.661 134.112 126.9 137.682 127.191 138.192C127.555 138.848 127.992 139.066 128.43 139.066H129.012C129.158 139.066 129.158 139.139 129.158 139.212V139.576C129.158 139.722 129.085 139.795 128.939 139.795C128.575 139.795 128.211 139.722 126.098 139.722C124.496 139.722 123.84 139.795 123.476 139.795C123.33 139.795 123.257 139.649 123.257 139.576V139.212C123.257 139.066 123.33 139.066 123.403 139.066H123.913C124.423 139.066 124.569 138.848 124.496 138.338C124.35 137.682 123.549 135.205 123.33 134.55H118.886ZM123.112 133.748C122.893 133.165 121.655 128.867 121.509 128.503C121.436 128.285 121.363 128.139 121.29 128.139C121.145 128.139 121.072 128.212 121.072 128.357C120.999 128.576 119.324 133.311 119.178 133.675H123.112V133.748Z" fill="#5EA087"/>
<path d="M131.27 131.199C131.27 134.404 131.416 137.1 131.489 137.682C131.561 138.629 131.78 139.066 132.436 139.066H132.945C133.091 139.066 133.091 139.139 133.091 139.212V139.649C133.091 139.795 133.091 139.795 132.945 139.795C132.727 139.795 131.634 139.722 130.906 139.722C130.396 139.722 129.085 139.795 128.939 139.795C128.866 139.795 128.793 139.722 128.793 139.649V139.139C128.793 139.066 128.866 138.994 128.939 138.994H129.594C130.104 138.994 130.323 138.557 130.469 137.391C130.469 137.027 130.614 134.404 130.614 131.345V128.941C130.614 127.775 129.959 126.901 129.157 126.901H128.429C128.356 126.901 128.283 126.828 128.283 126.755V126.245C128.283 126.172 128.356 126.1 128.429 126.1C128.502 126.1 128.647 126.1 129.012 126.172C129.376 126.172 129.886 126.172 130.687 126.172C130.979 126.172 131.27 126.172 131.489 126.1C131.707 126.1 131.926 126.1 131.998 126.1C132.217 126.1 132.363 126.172 132.436 126.245C132.654 126.464 136.369 131.126 136.734 131.636C137.025 131.927 139.939 135.643 140.23 136.007H140.303V134.04C140.303 132.365 140.303 131.417 140.23 130.47C140.157 129.742 140.085 127.921 140.012 127.557C139.866 127.119 139.429 126.828 138.992 126.828H138.409C138.263 126.828 138.263 126.755 138.263 126.682V126.245C138.263 126.1 138.263 126.1 138.409 126.1C138.628 126.1 139.21 126.172 140.522 126.172C141.687 126.172 142.124 126.1 142.343 126.1C142.489 126.1 142.561 126.172 142.561 126.245V126.682C142.561 126.828 142.489 126.901 142.416 126.901H141.906C141.541 126.901 141.323 127.192 141.25 127.921C141.177 129.232 140.959 132.437 140.959 134.331V139.358C140.959 139.649 140.959 139.868 140.74 139.868C140.449 139.868 140.23 139.722 140.085 139.576C139.939 139.358 138.919 138.192 137.753 136.808C136.442 135.206 134.912 133.384 134.694 133.093C134.402 132.802 131.416 129.014 131.197 128.795H131.051V131.199H131.27Z" fill="#5EA087"/>
<path d="M147.369 133.603C147.369 133.821 147.442 138.192 147.442 138.338C147.442 138.921 147.733 138.994 148.17 138.994H148.972C149.045 138.994 149.117 139.066 149.117 139.139V139.649C149.117 139.795 149.045 139.795 148.899 139.795C148.68 139.795 147.879 139.722 146.131 139.722C144.237 139.722 143.362 139.795 143.217 139.795C143.071 139.795 143.071 139.722 143.071 139.649V139.139C143.071 139.066 143.144 138.994 143.217 138.994H143.945C144.309 138.994 144.747 138.921 144.819 138.411C144.892 138.119 144.892 134.04 144.892 133.02V131.709C144.892 131.272 144.819 127.848 144.819 127.557C144.747 127.119 144.601 126.901 144.018 126.901H142.998C142.853 126.901 142.853 126.828 142.853 126.755V126.245C142.853 126.172 142.925 126.1 142.998 126.1C143.217 126.1 144.237 126.172 146.058 126.172C147.879 126.172 148.462 126.1 148.753 126.1C148.899 126.1 148.899 126.172 148.899 126.245V126.682C148.899 126.828 148.826 126.828 148.753 126.828H148.025C147.588 126.828 147.296 126.974 147.296 127.338C147.296 127.557 147.223 131.709 147.223 131.927V133.603H147.369Z" fill="#5EA087"/>
<path d="M162.595 136.663C162.668 136.735 162.668 136.808 162.668 136.881C161.502 138.484 159.681 140.086 156.986 140.086C154.582 140.086 153.197 139.358 152.032 138.338C150.648 137.1 149.992 134.914 149.992 133.239C149.992 131.345 150.575 129.596 151.959 128.139C152.979 127.047 154.582 126.1 156.913 126.1C158.661 126.1 160.045 126.61 160.774 127.047C161.065 127.192 161.138 127.192 161.138 127.047L161.284 126.537C161.356 126.391 161.356 126.391 161.575 126.391C161.794 126.391 161.866 126.464 161.866 126.682C161.866 127.047 162.231 130.033 162.303 130.616C162.303 130.762 162.303 130.762 162.231 130.835L161.866 130.98C161.794 131.053 161.721 130.908 161.648 130.762C161.429 130.106 160.992 129.159 160.191 128.285C159.39 127.484 158.37 126.901 156.913 126.901C153.853 126.901 152.615 129.669 152.615 132.364C152.615 133.53 152.979 135.788 154.363 137.318C155.601 138.629 156.694 138.775 157.641 138.775C159.754 138.775 161.356 137.755 162.158 136.59C162.231 136.444 162.303 136.371 162.376 136.444L162.595 136.663Z" fill="#5EA087"/>
<path d="M164.125 135.497C164.198 135.497 164.271 135.57 164.271 135.643C164.344 136.225 164.489 136.954 164.999 137.828C165.582 138.775 166.529 139.212 167.476 139.212C168.496 139.212 169.953 138.557 169.953 137.027C169.953 135.278 169.152 134.696 167.112 133.967C166.529 133.749 165.218 133.239 164.344 132.364C163.688 131.782 163.397 130.835 163.397 129.669C163.397 128.576 163.834 127.702 164.708 127.047C165.436 126.391 166.311 126.1 167.403 126.1C168.642 126.1 169.443 126.391 169.807 126.537C170.026 126.61 170.099 126.61 170.172 126.464L170.39 126.245C170.463 126.172 170.536 126.1 170.681 126.1C170.827 126.1 170.827 126.245 170.827 126.391C170.827 126.682 171.119 129.378 171.119 129.523C171.119 129.596 171.046 129.669 170.973 129.669L170.681 129.742C170.609 129.742 170.536 129.742 170.463 129.596C170.244 129.086 169.953 128.285 169.297 127.557C168.787 127.047 168.205 126.755 167.33 126.755C165.801 126.755 165.218 127.994 165.218 128.649C165.218 129.305 165.291 129.888 165.728 130.325C166.238 130.835 167.258 131.272 168.059 131.49C169.152 131.855 170.099 132.219 170.827 132.947C171.41 133.603 171.774 134.404 171.774 135.643C171.774 137.974 170.244 139.868 167.768 139.868C166.238 139.868 165.291 139.504 164.562 138.921C164.344 138.775 164.198 138.702 164.125 138.702C164.052 138.702 163.907 138.848 163.834 139.066C163.688 139.285 163.615 139.285 163.47 139.285C163.324 139.285 163.251 139.139 163.251 138.994C163.324 138.775 163.542 135.715 163.615 135.497C163.615 135.351 163.688 135.351 163.761 135.351L164.125 135.497Z" fill="#5EA087"/>
<path d="M172.266 119.179C176.637 108.907 179.114 97.543 179.114 85.596C179.114 38.3179 140.796 0 93.5179 0C46.2398 0 7.92188 38.3179 7.92188 85.596C7.92188 97.4702 10.3258 108.834 14.7696 119.179H172.266Z" fill="#5EA087"/>
<path d="M161.121 119.179C166.147 109.053 168.988 97.6885 168.988 85.5958C168.988 43.8541 135.187 10.0527 93.4454 10.0527C51.7037 10.0527 17.9023 43.8541 17.9023 85.5958C17.9023 97.6156 20.7434 109.053 25.7699 119.179H161.121Z" fill="#212C29"/>
<path d="M93.4436 87.9986C106.962 87.9986 117.92 77.0399 117.92 63.5217C117.92 50.0036 106.962 39.0449 93.4436 39.0449C79.9254 39.0449 68.9668 50.0036 68.9668 63.5217C68.9668 77.0399 79.9254 87.9986 93.4436 87.9986Z" fill="#698B81"/>
<path d="M151.794 115.389C149.536 113.932 147.205 112.402 144.947 110.945C144.291 110.508 143.635 109.925 143.053 109.343C141.814 107.958 140.357 106.866 138.682 106.064C137.443 105.482 136.351 104.389 135.258 103.442C134.748 103.005 134.384 103.078 133.801 103.369C131.106 104.826 128.41 106.429 125.642 107.667C124.331 108.25 122.801 108.687 121.563 107.084C121.198 106.647 120.616 106.356 120.251 105.846C119.159 104.535 117.702 104.025 116.026 104.17C114.715 104.316 113.914 103.515 113.039 102.786C112.748 102.495 112.457 102.131 112.092 102.058C109.251 101.548 107.722 98.9982 105.39 97.6869C101.894 95.72 99.1983 92.879 96.2116 90.1836C95.4831 90.6935 94.8275 91.2035 94.1719 91.7863C92.8606 92.9518 91.7679 94.3359 90.3109 95.2101C88.854 96.0114 87.9798 97.3227 86.8142 98.3425C86.6685 98.4154 86.5957 98.6339 86.45 98.6339C84.4831 98.5611 83.6089 100.237 82.3705 101.256C81.7149 101.766 81.1321 102.422 80.4765 102.932C79.748 103.442 78.9467 103.806 78.1454 104.17C77.7083 104.389 77.1983 104.535 76.7613 104.826C75.3772 105.846 74.0659 106.793 72.7546 107.886C72.2447 108.323 71.8805 108.323 71.2977 107.958C69.1851 106.574 66.9997 105.19 64.8871 103.806C64.2314 103.369 63.7944 103.296 63.0659 103.733C60.8076 105.117 58.4765 106.429 56.1454 107.813C55.7083 108.031 55.2712 108.323 54.8341 108.25C53.3771 108.104 52.1387 108.687 50.9732 109.415C50.3904 109.78 49.7348 109.998 49.2248 110.435C47.1851 112.038 44.9268 112.475 42.45 111.892C41.8672 111.747 41.1387 111.965 40.5559 112.256C38.6619 113.203 36.8407 114.296 35.0195 115.316C35.0924 115.389 35.0924 115.535 35.1652 115.607C36.5493 115.097 37.9334 114.66 39.2447 113.932C40.7017 113.131 42.1586 112.912 43.8341 113.422C45.1454 113.786 46.3838 113.568 47.5493 112.912C49.0063 112.038 50.5361 111.237 52.0659 110.508C52.7215 110.217 53.5228 110.144 54.2513 109.925C54.3242 110.071 54.3242 110.217 54.397 110.362C53.7414 110.727 53.0129 111.164 52.1387 111.674C52.7215 111.747 53.0858 111.747 53.5228 111.819C52.2116 113.495 50.3175 113.422 48.5692 113.932C46.2381 114.588 43.9069 115.316 41.5758 115.972C41.6487 116.117 41.6487 116.263 41.7215 116.409C42.8871 116.19 44.0526 115.899 45.291 115.753C46.748 115.535 48.2778 115.098 49.7348 115.17C52.8672 115.316 55.4169 113.932 58.1122 112.766C59.205 112.256 60.2977 111.528 61.3904 110.872C61.9732 111.309 62.7745 111.819 63.4301 112.402C63.5758 112.548 63.3573 113.349 63.1387 113.495C61.9003 114.369 60.5891 115.098 59.205 115.899C61.099 115.753 64.6685 113.713 64.8871 112.621C65.397 112.766 65.9798 112.912 66.6354 113.131C63.503 110.144 63.1387 109.124 64.5228 108.25C64.45 107.376 64.3771 106.574 64.2314 105.846C64.3043 105.773 64.45 105.773 64.5228 105.7C66.5626 107.084 68.6023 108.541 70.6421 109.998C70.2778 110.654 69.9864 111.309 69.695 111.892C69.7679 111.965 69.7679 111.965 69.8407 112.038C71.2977 110.799 72.8275 109.634 74.2844 108.396C75.0129 107.813 75.7414 107.084 76.5427 106.647C77.1983 106.21 77.9997 106.064 78.801 105.7C79.2381 105.482 79.748 105.263 80.1851 105.045C81.205 104.389 82.152 103.733 83.2447 103.15C81.7149 104.899 80.5493 107.084 78.6553 108.25C75.8871 109.998 73.7016 112.329 71.0791 114.15C69.695 115.17 68.1652 115.826 66.344 115.972C64.2314 116.117 62.1917 116.7 60.0791 117.137C60.0791 117.283 60.152 117.501 60.152 117.647C61.0261 117.574 61.8275 117.429 62.7016 117.356C62.7016 117.429 62.7745 117.574 62.7745 117.647C61.4632 118.521 60.0063 118.886 58.4765 119.177H66.2712C67.9467 119.031 69.6222 118.886 71.3705 118.74C71.2248 118.886 71.0791 119.031 70.8606 119.177H77.854C78.0725 119.104 78.291 118.958 78.4367 118.886C78.7281 118.74 79.1652 118.74 79.2381 118.521C79.9666 117.283 80.9864 116.992 82.3705 117.356C82.8076 117.429 83.4632 116.919 83.9003 116.482C85.2844 115.243 85.8672 115.17 87.1785 116.554C87.6156 117.064 88.0526 117.647 88.5626 118.084C89.0725 118.521 89.6553 118.74 90.2381 119.031C90.3109 119.031 90.3838 119.104 90.4566 119.104H92.7149C92.4964 118.813 92.4235 118.448 92.205 118.157C91.9136 117.793 91.695 117.356 91.3308 117.137C88.854 115.826 86.8142 114.078 85.1387 111.674C86.0858 110.508 87.0328 109.27 88.1255 107.886C89.1454 108.833 90.0195 109.852 91.1122 110.654C92.4235 111.747 93.8805 112.621 95.4103 113.786C95.2646 113.276 95.1189 112.985 95.046 112.694C95.1189 112.621 95.1917 112.475 95.2646 112.402C96.4301 113.058 97.5228 113.713 98.907 114.515C97.8142 113.276 97.0129 112.038 95.3374 111.892C93.3705 111.747 92.5692 109.998 91.2579 109.051C92.6421 108.104 93.9533 107.23 95.1917 106.21C96.5758 105.117 96.9401 103.005 96.3573 101.329C96.0659 100.601 96.0659 99.7266 96.1387 98.8525C98.6884 100.018 99.344 103.369 102.768 103.369C102.185 102.786 101.529 102.203 101.02 101.548C99.854 100.309 98.7612 98.9982 97.6685 97.7597C97.0858 97.1041 96.4301 96.4485 95.6288 95.6472C95.9202 95.3558 96.6487 95.0644 96.8672 94.4816C97.0858 93.8988 96.7215 93.0975 96.6487 92.0776C98.6156 93.9717 100.437 95.72 102.185 97.3955C102.404 97.6141 102.695 97.9783 102.986 98.0512C105.682 98.5611 107.284 100.819 109.47 102.131C109.47 102.276 109.397 102.349 109.397 102.495C108.814 102.422 108.159 102.276 107.576 102.203C107.503 102.276 107.503 102.349 107.43 102.422C108.814 103.078 110.125 103.66 111.51 104.316C111.874 104.462 112.165 104.826 112.384 105.19C113.112 106.72 113.695 108.25 114.351 109.78C114.496 109.561 114.642 109.415 114.861 109.124C115.298 110.071 115.589 110.945 116.099 112.038C112.457 110.071 109.106 108.25 105.755 106.429C105.682 106.574 105.609 106.647 105.536 106.793C110.781 110.581 116.099 114.442 121.344 118.23C121.417 118.157 121.417 118.157 121.49 118.084C120.251 116.773 119.086 115.535 117.702 114.005C119.377 114.005 120.761 114.005 122.073 114.005C122.145 113.932 122.145 113.932 122.218 113.859C121.49 113.495 120.688 112.985 119.887 112.766C118.94 112.548 118.357 112.038 118.139 111.091C117.847 109.925 117.192 108.978 116.318 108.104C115.662 107.448 115.443 106.429 115.006 105.482C118.284 105.409 120.178 107.011 121.781 109.27C122.655 110.435 123.602 111.601 124.476 112.766C124.622 112.694 124.768 112.548 124.841 112.475C124.695 112.256 124.476 111.965 124.331 111.747C124.112 111.455 123.748 111.164 123.602 110.799C123.457 110.508 123.384 110.144 123.311 109.634C125.788 111.674 128.192 113.641 130.596 115.607C130.669 115.462 130.814 115.389 130.887 115.243C130.304 114.588 129.794 113.859 129.284 113.276C129.794 112.402 130.304 111.528 130.741 110.727C130.814 110.581 130.96 110.29 130.96 110.217C130.159 108.25 131.98 107.74 132.927 106.356C133.51 108.687 134.02 110.799 134.529 112.912C134.748 112.548 135.039 112.184 135.185 111.892C136.642 112.694 137.953 113.713 139.41 114.078C141.523 114.588 143.198 115.753 145.02 116.7C143.854 115.607 142.98 114.223 141.231 113.713C138.9 113.058 137.079 111.455 135.258 109.852C135.039 109.634 134.894 109.27 134.821 108.978C134.675 108.104 134.457 107.157 134.457 106.283C134.457 105.554 134.821 104.899 135.112 104.025C136.059 104.826 137.006 105.7 138.026 106.429C138.536 106.793 139.119 106.939 139.702 107.23C140.212 107.448 140.722 107.667 141.086 108.031C142.688 109.634 144.145 111.237 145.894 113.058C145.748 112.475 145.602 112.111 145.457 111.601C147.715 112.912 149.755 114.078 151.867 115.316C151.649 115.607 151.722 115.535 151.794 115.389Z" fill="#5EA087"/>
<path d="M62.1924 79.4023C62.1924 79.4023 62.7023 84.7931 69.9142 86.3957C69.9142 86.3957 69.0401 80.2765 62.1924 79.4023Z" fill="white"/>
<path d="M61.3914 84.0664C61.3914 84.0664 59.7887 90.1128 66.4907 93.3181C66.4907 93.3181 67.5834 86.179 61.3914 84.0664Z" fill="white"/>
<path d="M59.7157 88.7266C59.7157 88.7266 56.8018 94.5544 62.2654 98.9252C62.1925 98.9252 65.6892 93.4617 59.7157 88.7266Z" fill="white"/>
<path d="M52.431 87.2695C52.431 87.2695 58.3317 89.9649 56.0734 96.594C56.0006 96.594 50.537 93.6073 52.431 87.2695Z" fill="white"/>
<path d="M50.2451 88.7266C50.2451 88.7266 47.1126 92.806 50.8279 98.9252C50.755 98.9252 54.2517 94.1901 50.2451 88.7266Z" fill="white"/>
<path d="M47.331 91.3496C47.331 91.3496 42.6687 91.2768 42.0859 98.9258C42.0859 98.9258 47.9866 97.1046 47.331 91.3496Z" fill="white"/>
<path d="M59.2054 79.9863C59.2054 79.9863 54.2518 80.9334 54.9074 86.3969C54.9074 86.3969 59.4968 85.8141 59.2054 79.9863Z" fill="white"/>
<path d="M51.265 84.6486C51.265 84.6486 50.8279 78.7479 43.7617 79.4764C43.7617 79.4035 44.4174 84.2843 51.265 84.6486Z" fill="white"/>
<path d="M47.9866 86.7609C47.9866 86.7609 44.9998 81.9529 38.2979 85.9596C38.2979 85.9596 41.3575 89.5291 47.9866 86.7609Z" fill="white"/>
<path d="M45.147 89.3109C45.147 89.3109 38.2264 86.9798 36.041 93.099C36.041 93.0261 42.3788 94.6288 45.147 89.3109Z" fill="white"/>
<path d="M36.0405 82.8984C36.0405 82.8984 31.5239 84.7925 32.9809 92.2958C32.9809 92.2958 37.4974 89.9647 36.0405 82.8984Z" fill="white"/>
<path d="M31.8156 89.8203C31.8156 89.8203 26.7891 91.0587 27.9547 97.2508C27.9547 97.2508 32.6897 95.721 31.8156 89.8203Z" fill="white"/>
<path d="M43.1801 77C43.1801 77 38.0079 77.0728 37.8622 83.1921C37.7893 83.1921 42.4516 82.6093 43.1801 77Z" fill="white"/>
<path d="M49.8818 80.1308C49.8818 80.1308 49.9547 74.74 55.1997 74.5215C55.1997 74.5215 54.5441 79.9122 49.8818 80.1308Z" fill="white"/>
<path d="M38.9536 77.2898C38.9536 77.2898 33.6357 75.76 29.8477 81.515C29.8477 81.515 36.9867 83.0448 38.9536 77.2898Z" fill="white"/>
<path d="M32.1792 82.6094C32.1792 82.6094 27.2984 82.9008 26.8613 88.8743C26.8613 88.8014 31.5236 88.2915 32.1792 82.6094Z" fill="white"/>
<path d="M53.2327 71.7535C53.2327 71.7535 51.9943 65.1972 58.1135 63.7402C58.1135 63.7402 59.0605 69.7137 53.2327 71.7535Z" fill="white"/>
<path d="M59.6426 71.7535C59.6426 71.7535 57.3115 67.674 60.6625 64.323C60.6625 64.2502 62.9208 69.4952 59.6426 71.7535Z" fill="white"/>
<path d="M43.7617 68.038C43.7617 68.038 49.8809 67.6009 50.9736 72.9188C50.9008 72.9188 44.9273 73.3559 43.7617 68.038Z" fill="white"/>
<path d="M46.2393 64.6883C46.2393 64.6883 51.0472 64.2513 51.1929 68.9864C51.2657 68.9135 46.6035 68.7678 46.2393 64.6883Z" fill="white"/>
<path d="M40.4831 69.7871C40.4831 69.7871 45.7282 70.5156 45.9467 74.5222C45.9467 74.5222 40.4103 74.158 40.4831 69.7871Z" fill="white"/>
<path d="M38.7353 73.7198C38.7353 73.7198 39.5366 69.2761 35.6757 67.9648C35.6757 68.0377 34.5101 72.6271 38.7353 73.7198Z" fill="white"/>
<path d="M34.8024 75.4679C34.8024 75.4679 29.9945 73.5738 28.6104 76.9977C28.6104 76.9977 32.9812 78.4546 34.8024 75.4679Z" fill="white"/>
<path d="M34.8023 72.1898C34.8023 72.1898 34.4381 67.7461 30.2129 67.7461C30.2129 67.7461 30.7957 71.8984 34.8023 72.1898Z" fill="white"/>
<path d="M34.0007 73.2836C34.0007 73.2836 30.8682 71.3167 28.1729 73.7935C28.1729 73.7207 31.5967 75.3233 34.0007 73.2836Z" fill="white"/>
<path d="M37.4966 66.582C37.4966 66.582 35.6025 64.1052 31.4502 65.9264C31.4502 65.9264 34.2184 68.6217 37.4966 66.582Z" fill="white"/>
<path d="M38.9532 64.0334C38.9532 64.0334 36.9863 59.5897 32.5426 61.4109C32.4698 61.4109 34.8738 65.8546 38.9532 64.0334Z" fill="white"/>
<path d="M43.1795 64.9801C43.1795 64.9801 39.6828 64.6887 38.8086 69.4238C38.8086 69.4238 43.2523 69.2052 43.1795 64.9801Z" fill="white"/>
<path d="M44.8546 59.2969C44.8546 59.2969 40.0467 59.8068 39.8281 64.3234C39.901 64.2505 43.8348 64.3234 44.8546 59.2969Z" fill="white"/>
<path d="M48.3508 54.7081C48.3508 54.7081 43.6885 53.0326 41.3574 57.4763C41.3574 57.5492 46.2382 59.3704 48.3508 54.7081Z" fill="white"/>
<path d="M46.4572 50.2635C46.4572 50.2635 45.2916 45.8198 41.7949 46.694C41.7949 46.694 42.0863 50.9192 46.4572 50.2635Z" fill="white"/>
<path d="M46.6771 53.2496C46.6771 53.2496 43.3261 48.8059 37.7168 51.5741C37.7168 51.5013 41.6506 55.6536 46.6771 53.2496Z" fill="white"/>
<path d="M40.4839 58.6417C40.4839 58.6417 39.8283 53.6152 35.8945 54.0523C35.8945 53.9795 35.9674 57.4762 40.4839 58.6417Z" fill="white"/>
<path d="M50.0268 49.3899C50.0268 49.3899 46.0202 45.6019 50.0268 39.5555C50.0268 39.4826 53.9606 44.3634 50.0268 49.3899Z" fill="white"/>
<path d="M51.2658 52.8853C51.2658 52.8853 50.2459 47.1304 56.0738 45.2363C56.0738 45.3092 56.0738 51.8655 51.2658 52.8853Z" fill="white"/>
<path d="M53.1594 56.7468C53.1594 56.7468 52.6494 52.0845 57.0931 51.2832C57.0931 51.2832 57.2388 56.3097 53.1594 56.7468Z" fill="white"/>
<path d="M47.8412 49.0985C47.8412 49.0985 43.5432 46.4031 44.6359 42.3965C44.6359 42.3965 48.7882 44.8005 47.8412 49.0985Z" fill="white"/>
<path d="M58.8418 55.0721C58.8418 55.0721 65.3981 51.284 68.6034 56.3105C68.6762 56.3105 62.7756 59.7343 58.8418 55.0721Z" fill="white"/>
<path d="M58.332 51.0652C58.332 51.0652 61.3188 46.1844 67.2195 48.5155C67.2195 48.4427 64.8883 53.542 58.332 51.0652Z" fill="white"/>
<path d="M65.6892 46.0383C65.6892 46.0383 62.7753 42.4688 58.9143 46.184C58.8415 46.1111 61.9739 48.2237 65.6892 46.0383Z" fill="white"/>
<path d="M63.1397 43.1243C63.1397 43.1243 60.2258 38.3893 53.5967 41.1575C53.6695 41.1575 56.802 45.0912 63.1397 43.1243Z" fill="white"/>
<path d="M60.1525 39.0441C60.1525 39.0441 58.4041 33.3619 51.3379 35.9845C51.3379 35.9845 54.2518 40.6467 60.1525 39.0441Z" fill="white"/>
<path d="M61.8998 37.1513C61.8998 37.1513 62.4826 32.7076 58.0389 31.9062C58.0389 31.9062 56.8733 36.35 61.8998 37.1513Z" fill="white"/>
<path d="M67.8026 36.0581C67.8026 36.0581 67.3655 30.1574 60.7364 30.0117C60.6635 30.0117 61.3192 35.7667 67.8026 36.0581Z" fill="white"/>
<path d="M65.1055 39.0461C65.1055 39.0461 69.1121 36.4965 71.8803 41.0859C71.8074 41.0859 67.3637 42.8342 65.1055 39.0461Z" fill="white"/>
<path d="M70.8614 35.6939C70.8614 35.6939 72.1726 27.972 66.5634 27.3164C66.6362 27.3164 65.3978 33.0714 70.8614 35.6939Z" fill="white"/>
<path d="M73.9212 37.4409C73.9212 37.4409 69.186 31.3217 74.3582 27.2422C74.3582 27.315 77.7092 32.8515 73.9212 37.4409Z" fill="white"/>
<path d="M75.3051 40.1385C75.3051 40.1385 74.7223 34.7477 80.1859 32.4166C80.1859 32.3438 81.1329 39.0457 75.3051 40.1385Z" fill="white"/>
<path d="M79.457 42.6875C79.457 42.6875 84.3378 42.9789 83.318 47.6411C83.318 47.6411 79.1656 47.4226 79.457 42.6875Z" fill="white"/>
<path d="M85.649 47.6398C85.649 47.6398 82.6623 42.8319 85.5033 39.918C85.5033 39.918 88.7815 43.7061 85.649 47.6398Z" fill="white"/>
<path d="M82.2975 38.3164C82.2975 38.3164 79.6022 34.1641 82.2975 31.4688C82.2975 31.4688 84.8472 35.1111 82.2975 38.3164Z" fill="white"/>
<path d="M80.2592 23.8203C80.2592 23.8203 79.0936 29.9395 85.14 32.3435C85.14 32.3435 84.9214 25.0587 80.2592 23.8203Z" fill="white"/>
<path d="M74.5771 24.0391C74.5771 24.0391 79.3122 24.1119 80.0407 29.1384C79.9679 29.1384 74.65 29.2841 74.5771 24.0391Z" fill="white"/>
<path d="M85.3579 21.3438C85.3579 21.3438 89.146 24.6947 86.2321 29.357C86.2321 29.357 82.8082 27.5358 85.3579 21.3438Z" fill="white"/>
<path d="M89.874 26.151C89.874 26.151 91.1124 20.8331 95.4833 21.3431C95.4833 21.3431 95.2648 25.6411 89.874 26.151Z" fill="white"/>
<path d="M88.4173 26.5879C88.4173 26.5879 84.9935 30.4488 88.9272 35.3296C88.9272 35.2568 91.7683 30.2303 88.4173 26.5879Z" fill="white"/>
<path d="M90.9677 32.3438C90.9677 32.3438 90.3849 36.6418 96.1399 36.7146C96.1399 36.7875 95.9942 32.9265 90.9677 32.3438Z" fill="white"/>
<path d="M92.861 26.4414C92.861 26.4414 98.5431 28.554 97.6689 34.2361C97.6689 34.2361 91.5497 32.0507 92.861 26.4414Z" fill="white"/>
<path d="M99.1987 32.1237C99.1987 32.1237 95.1921 26.223 99.1987 22.5078C99.1987 22.5078 102.404 26.9515 99.1987 32.1237Z" fill="white"/>
<path d="M102.259 28.7016C102.259 28.7016 100.874 23.6751 105.537 22.291C105.537 22.291 106.192 27.6089 102.259 28.7016Z" fill="white"/>
<path d="M105.536 29.7191C105.536 29.7191 106.046 24.4012 112.967 23.8913C112.967 23.8184 112.894 29.8648 105.536 29.7191Z" fill="white"/>
<path d="M103.643 33.728C103.643 33.728 108.596 29.1386 113.186 32.8539C113.113 32.8539 108.669 36.5691 103.643 33.728Z" fill="white"/>
<path d="M99.9277 36.4945C99.9277 36.4945 106.411 34.6733 108.961 40.1369C108.961 40.1369 101.895 41.9581 99.9277 36.4945Z" fill="white"/>
<path d="M107.357 35.9856C107.357 35.9856 111.583 34.6743 113.112 37.224C113.112 37.224 109.179 39.6279 107.357 35.9856Z" fill="white"/>
<path d="M113.914 33.6549C113.914 33.6549 115.007 28.1913 121.927 28.6284C121.927 28.7013 119.45 34.6019 113.914 33.6549Z" fill="white"/>
<path d="M125.57 29.502C125.57 29.502 120.544 29.8662 118.504 34.6013C118.504 34.6013 124.113 34.4556 125.57 29.502Z" fill="white"/>
<path d="M118.504 37.0062C118.504 37.0062 123.239 31.9068 128.411 35.2578C128.484 35.2578 124.113 39.9929 118.504 37.0062Z" fill="white"/>
<path d="M126.298 39.9198C126.298 39.9198 127.828 34.0191 133.073 34.3834C133.073 34.3834 132.199 39.7741 126.298 39.9198Z" fill="white"/>
<path d="M113.696 39.4102C113.696 39.4102 119.378 40.2115 119.232 46.6221C119.232 46.6221 113.623 45.3108 113.696 39.4102Z" fill="white"/>
<path d="M116.026 38.3161C116.026 38.3161 122.073 36.8591 124.841 42.2499C124.841 42.2499 117.92 43.7797 116.026 38.3161Z" fill="white"/>
<path d="M87.8346 48.5884C87.8346 48.5884 86.8876 41.8136 91.9141 40.2109C91.9141 40.2838 92.7154 47.0586 87.8346 48.5884Z" fill="white"/>
<path d="M94.9741 46.622C94.9741 46.622 91.8416 44.5822 93.8814 40.6484C93.8814 40.7213 96.6496 43.4167 94.9741 46.622Z" fill="white"/>
<path d="M95.9209 50.0459C95.9209 50.0459 98.252 45.2379 103.861 46.9863C103.788 46.9863 102.186 52.0128 95.9209 50.0459Z" fill="white"/>
<path d="M97.8154 54.6348C97.8154 54.6348 103.716 52.2309 106.703 58.5686C106.703 58.5686 99.4909 59.6613 97.8154 54.6348Z" fill="white"/>
<path d="M93.59 54.6348C93.59 54.6348 99.1993 54.9262 99.1993 62.5752C99.2721 62.5752 92.4973 61.0454 93.59 54.6348Z" fill="white"/>
<path d="M89.5103 53.3242C89.5103 53.3242 94.2454 56.5295 90.5302 63.5957C90.5302 63.5957 86.1593 58.7878 89.5103 53.3242Z" fill="white"/>
<path d="M87.6161 52.377C87.6161 52.377 82.5168 53.1054 82.5896 61.4101C82.5896 61.4101 87.6161 62.2842 87.6161 52.377Z" fill="white"/>
<path d="M84.4836 51.1363C84.4836 51.1363 79.7485 50.0436 77.4902 54.4873C77.4902 54.4873 82.7353 55.58 84.4836 51.1363Z" fill="white"/>
<path d="M115.007 67.965C115.007 67.965 113.695 60.8259 119.232 59.1504C119.159 59.1504 120.543 65.4153 115.007 67.965Z" fill="white"/>
<path d="M116.464 69.3491C116.464 69.3491 119.086 63.0114 125.861 65.6339C125.861 65.6339 121.855 71.4617 116.464 69.3491Z" fill="white"/>
<path d="M115.881 70.5162C115.881 70.5162 123.238 69.2778 125.642 73.9401C125.57 73.8673 118.066 75.3242 115.881 70.5162Z" fill="white"/>
<path d="M131.106 74.6672C131.106 74.6672 134.239 69.7864 130.305 66.9453C130.305 66.9453 126.517 70.6605 131.106 74.6672Z" fill="white"/>
<path d="M127.537 56.0911C127.537 56.0911 124.113 55.7997 123.021 59.5878C123.021 59.5878 127.173 59.8063 127.537 56.0911Z" fill="white"/>
<path d="M132.272 57.6953C132.272 57.6953 127.1 57.9867 127.245 63.8145C127.245 63.7417 131.47 63.3046 132.272 57.6953Z" fill="white"/>
<path d="M135.04 58.6406C135.04 58.6406 131.397 60.1704 132.709 65.634C132.636 65.634 136.205 64.6141 135.04 58.6406Z" fill="white"/>
<path d="M135.841 64.541C135.841 64.541 131.98 67.3092 135.841 73.7927C135.841 73.7927 139.702 68.3291 135.841 64.541Z" fill="white"/>
<path d="M143.782 65.6348C143.782 65.6348 139.119 66.2176 138.609 72.8467C138.609 72.8467 143.417 72.0454 143.782 65.6348Z" fill="white"/>
<path d="M149.901 66.0704C149.901 66.0704 144.656 65.7062 142.689 71.8983C142.762 71.8983 149.464 71.2426 149.901 66.0704Z" fill="white"/>
<path d="M136.716 59.1504C136.716 59.1504 141.233 60.316 141.087 66.0709C141.014 66.0709 135.624 64.6868 136.716 59.1504Z" fill="white"/>
<path d="M141.451 59.5882C141.451 59.5882 148.08 59.4425 149.246 65.1247C149.246 65.1975 142.544 65.1975 141.451 59.5882Z" fill="white"/>
<path d="M149.245 70.5148C149.245 70.5148 151.94 64.8326 157.258 67.4552C157.258 67.3823 154.782 71.3161 149.245 70.5148Z" fill="white"/>
<path d="M144.948 74.2303C144.948 74.2303 149.319 69.7138 155.147 72.8462C155.147 72.8462 150.266 77.2899 144.948 74.2303Z" fill="white"/>
<path d="M140.648 75.6144C140.648 75.6144 148.079 74.376 149.754 79.9124C149.754 79.9124 142.615 81.4422 140.648 75.6144Z" fill="white"/>
<path d="M136.424 76.0527C136.424 76.0527 143.344 78.6024 142.98 83.7746C142.98 83.7746 136.934 82.5362 136.424 76.0527Z" fill="white"/>
<path d="M143.636 86.5409C143.636 86.5409 145.894 81.3687 152.887 83.5542C152.815 83.5542 149.901 88.7263 143.636 86.5409Z" fill="white"/>
<path d="M145.821 88.2174C145.821 88.2174 153.252 86.3962 156.457 91.277C156.457 91.277 148.59 93.8266 145.821 88.2174Z" fill="white"/>
<path d="M153.252 79.9129C153.252 79.9129 158.788 79.6943 160.027 86.7605C160.027 86.7605 153.762 86.1778 153.252 79.9129Z" fill="white"/>
<path d="M151.14 76.8532C151.14 76.8532 156.312 74.085 159.663 79.2572C159.663 79.1843 153.689 81.2969 151.14 76.8532Z" fill="white"/>
<path d="M144.948 57.9854C144.948 57.9854 150.849 54.9258 153.908 59.4424C153.908 59.3695 148.154 62.0649 144.948 57.9854Z" fill="white"/>
<path d="M143.418 56.9659C143.418 56.9659 145.749 52.2308 151.358 53.542C151.358 53.542 148.809 57.6943 143.418 56.9659Z" fill="white"/>
<path d="M140.213 56.5289C140.213 56.5289 139.411 50.3369 145.968 49.2441C145.968 49.2441 145.385 55.8004 140.213 56.5289Z" fill="white"/>
<path d="M137.153 55.9453C137.153 55.9453 135.259 50.1174 139.557 47.6406C139.557 47.6406 140.941 54.634 137.153 55.9453Z" fill="white"/>
<path d="M132.927 54.926C132.927 54.926 131.616 50.1181 135.04 48.2969C135.04 48.2969 135.914 54.3432 132.927 54.926Z" fill="white"/>
<path d="M128.192 52.8865C128.192 52.8865 128.702 49.2441 132.345 49.2441C132.418 49.2441 131.543 53.9792 128.192 52.8865Z" fill="white"/>
<path d="M126.08 47.6403C126.08 47.6403 129.067 43.6337 134.603 46.0377C134.603 46.0377 130.961 50.2628 126.08 47.6403Z" fill="white"/>
<path d="M135.842 44.436C135.842 44.436 142.471 41.2307 144.802 46.6215C144.802 46.6215 138.756 48.1513 135.842 44.436Z" fill="white"/>
<path d="M132.054 42.9781C132.054 42.9781 133.584 38.6801 138.61 39.1171C138.61 39.19 137.299 44.3622 132.054 42.9781Z" fill="white"/>
<path d="M124.039 45.7466C124.039 45.7466 125.715 39.846 131.761 40.0645C131.761 40.1374 130.523 46.6208 124.039 45.7466Z" fill="white"/>
<path d="M120.033 47.2773C120.033 47.2773 124.695 47.2773 124.841 51.2111C124.841 51.1383 120.252 51.6482 120.033 47.2773Z" fill="white"/>
<path d="M112.02 47.1303C112.02 47.1303 117.192 45.6734 119.013 50.1899C119.013 50.1171 114.059 51.4283 112.02 47.1303Z" fill="white"/>
<path d="M110.491 48.5879C110.491 48.5879 114.351 50.4091 113.186 54.7799C113.113 54.8528 108.888 53.3958 110.491 48.5879Z" fill="white"/>
<path d="M135.259 76.0527C135.259 76.0527 132.636 77.364 133.583 81.2249C133.583 81.2978 136.716 80.1322 135.259 76.0527Z" fill="white"/>
<path d="M130.159 83.7731C130.159 83.7731 125.424 82.5347 123.895 86.3956C123.967 86.3956 129.067 87.197 130.159 83.7731Z" fill="white"/>
<path d="M133.802 84.793C133.802 84.793 128.265 84.793 127.464 90.985C127.464 90.985 132.272 90.985 133.802 84.793Z" fill="white"/>
<path d="M135.987 85.4492C135.987 85.4492 131.397 89.9658 135.258 96.3764C135.186 96.3764 139.775 90.9856 135.987 85.4492Z" fill="white"/>
<path d="M138.829 87.3418C138.829 87.3418 136.279 93.5339 140.286 97.6862C140.286 97.6862 144.438 92.004 138.829 87.3418Z" fill="white"/>
<path d="M142.689 89.3828C142.689 89.3828 141.742 96.0848 148.59 98.1245C148.59 98.1974 149.974 91.7868 142.689 89.3828Z" fill="white"/>
<path d="M101.385 78.0912C98.1066 81.7336 95.1927 83.2634 95.1927 83.2634C95.1927 83.2634 94.5371 83.7005 94.5371 84.5746C94.5371 85.4488 94.5371 87.4157 92.8616 88.5813C92.8616 88.5813 91.8417 89.674 91.8417 91.4952C91.8417 91.4952 91.0404 87.4885 87.908 86.6144C87.908 86.6144 88.4908 83.8462 87.3252 80.8594C87.1795 80.4952 87.0338 80.1309 86.8153 79.8395L86.6696 79.621C88.4179 79.4024 88.1994 76.8528 88.1994 76.8528C86.3053 75.5415 86.3053 73.0647 86.3053 73.0647C84.9941 69.7865 87.5437 68.5481 87.5437 68.5481C87.5437 68.5481 86.451 66.3627 89.1464 65.9985C91.7689 65.6342 91.8418 68.1839 91.259 68.4024C91.259 68.4024 93.7358 69.6409 92.7159 72.7005C92.7159 72.7005 93.4444 75.3958 90.6762 76.9985C90.6762 76.9985 90.0934 79.4753 92.2788 80.1309C94.4643 80.8594 96.6497 78.9654 96.6497 78.9654C96.6497 78.9654 101.312 75.7601 101.53 70.9521C101.53 70.9521 101.385 67.6011 103.497 66.3627C105.537 65.1243 109.471 63.4488 109.689 57.7667C109.908 52.0846 104.59 42.9058 99.6365 41.4488C94.6828 39.9918 88.9278 39.4819 86.7424 37.4422C84.557 35.4024 83.5371 33.7998 83.5371 33.7998C83.5371 33.7998 86.5239 37.7336 90.1663 38.6806C93.8086 39.6276 98.6166 40.4289 98.6166 40.4289C98.6166 40.4289 94.3186 33.5813 104.153 30.0117C104.153 30.0117 94.2457 33.6541 99.9278 40.6475C99.9278 40.6475 103.934 43.0515 107.067 46.9852C107.067 46.9852 106.557 41.8859 114.352 37.2965C114.352 37.2965 106.994 42.2501 108.014 47.7865C108.014 47.7865 111.074 54.6342 110.636 58.568C110.636 58.568 118.067 50.9919 125.934 52.9587C125.934 52.9587 128.193 53.5415 130.597 55.0713C133.074 56.6011 140.14 58.7137 143.855 57.5481C143.855 57.5481 137.954 60.1707 127.974 54.8528C127.974 54.8528 120.471 50.919 112.676 59.0051C112.676 59.0051 109.179 62.5018 109.034 65.0514C109.034 65.0514 111.438 66.1442 112.822 67.6011C114.206 69.1309 114.643 70.0779 115.299 70.2236C115.299 70.2236 113.915 70.2236 111.875 67.8197C111.875 67.8197 106.848 63.376 104.59 68.2568C104.59 68.2568 108.742 69.7866 111.656 72.7733C114.57 75.7601 116.1 77.2899 119.524 75.6144C122.875 73.9389 125.425 75.4687 126.954 75.323C128.484 75.1773 137.372 76.27 142.398 72.7005C142.398 72.7005 139.776 76.8528 126.007 75.9786C126.007 75.9786 120.835 75.9058 120.18 77.217C119.524 78.6011 121.636 81.1508 127.319 81.8064C133.001 82.462 134.749 82.7534 135.405 83.2634C136.133 83.7005 140.067 86.4687 144.875 87.8528C144.875 87.8528 144.583 89.3826 135.259 84.3561C135.259 84.3561 133.729 82.972 127.974 82.972C122.219 82.972 116.901 78.6011 116.901 78.6011C116.901 78.6011 107.213 70.7336 105.319 70.7336C103.425 70.7336 103.279 71.025 102.987 72.1177C102.623 73.2832 102.769 76.4885 101.385 78.0912Z" fill="white"/>
<path d="M89 103.879C88.5629 106.283 87.3973 105.846 86.7417 107.594C86.0861 109.342 86.6689 110.945 87.106 112.256C87.543 113.64 86.6689 116.409 87.4702 117.793C87.6887 118.157 87.8344 118.594 87.9073 119.104H88.6358C88.4901 118.23 88.1258 117.356 87.8344 116.117C87.1788 113.495 89.0729 110.726 89.0729 110.726C89.5099 109.779 89.8742 108.832 90.1656 107.958C91.0397 105.044 90.8941 101.985 89.947 99.0708C88.7086 95.5012 86.9603 92.6602 86.9603 92.6602C85.8676 93.3886 85.5762 95.5012 85.5762 95.5012C88.1258 94.8456 89.4371 101.548 89 103.879Z" fill="white"/>
<path d="M85.5031 96.231C85.5031 96.231 83.5362 97.9065 83.9005 103.443C83.9005 103.443 84.0462 105.483 84.7018 107.377C84.7018 107.377 85.1389 108.979 85.3574 109.416C85.3574 109.416 85.3574 107.012 86.1587 106.357C86.9601 105.701 87.1058 103.516 87.2515 102.423C87.2515 101.476 87.6157 95.284 85.5031 96.231Z" fill="white"/>
<path d="M108.232 48.5876C108.232 48.5876 112.239 46.6207 111.802 41.9584C111.802 41.9584 113.113 40.2101 112.822 39.3359C112.822 39.3359 113.623 40.7929 112.385 42.0313C112.239 42.0313 112.458 47.7134 108.232 48.5876Z" fill="#5EA087"/>
<path d="M125.06 52.8861C125.06 52.8861 126.881 51.3563 125.642 48.0781C125.642 48.0781 127.536 52.0119 125.861 53.5417L125.06 52.8861Z" fill="#5EA087"/>
<path d="M92.2069 117.649C92.644 116.192 92.7897 114.662 93.0811 113.205C93.3725 111.966 93.7367 110.728 94.0281 109.49C94.6109 106.94 94.8294 104.39 94.9751 101.841C95.1937 98.9267 93.3725 96.7413 92.9354 95.94C92.4983 95.1386 90.9685 92.589 90.6043 91.132C90.1672 89.6751 89.4387 89.0194 88.1274 88.5095C86.889 88.0724 86.3791 86.9797 86.1605 86.2512C85.942 85.5227 85.6506 83.7744 85.3592 83.4102C85.0678 83.0459 84.7036 80.9333 84.5579 80.132C84.4122 79.3307 83.538 79.185 83.538 79.185L81.5712 78.238C78.2202 76.4896 78.2202 71.4631 78.2202 71.4631C78.2202 71.4631 77.4917 74.887 79.3129 77.3638C79.3129 77.3638 75.6705 78.238 74.2135 74.0857C72.7566 69.9333 71.0811 67.6751 71.0811 65.2711C71.0811 62.94 70.644 55.8737 73.2665 53.6883C75.8162 51.43 78.4387 50.9201 79.1672 50.4102C79.8956 49.9002 85.2864 49.6088 87.1076 50.4102C88.8559 51.2115 93.8096 54.7082 98.3261 53.6883C102.916 52.7413 104.664 50.4102 105.611 49.9002C106.631 49.3903 107.068 49.0989 107.068 49.0989C107.068 49.0989 104.955 49.3175 103.498 50.6287C102.041 51.94 95.048 54.6353 93.2268 51.2843C93.2268 51.2843 97.7433 47.4963 98.6904 43.4896C98.6904 43.4896 95.4851 50.4102 91.0414 50.483C91.0414 50.483 88.0546 50.4102 87.5447 49.7545C87.0347 49.0989 81.9354 48.1519 79.6043 49.0989C77.2003 49.9731 74.5778 49.7545 74.5778 49.7545C74.5778 49.7545 71.6639 43.1983 86.2334 39.483C86.2334 39.483 80.6241 39.7744 77.346 41.9598C77.346 41.9598 75.889 43.4168 74.6506 41.4499C73.4122 39.483 71.7367 36.2777 70.7897 35.9863C70.7897 35.9863 74.942 42.2512 73.995 44.8737C72.9751 47.4963 72.6837 49.0261 72.6837 49.0261C72.6837 49.0261 69.6241 49.1718 66.9288 43.7082C64.1606 38.2446 60.8824 37.9532 60.8824 37.9532C60.8824 37.9532 63.0678 38.9002 64.7433 41.1585C66.346 43.4168 67.0745 48.079 70.9354 50.3373C70.9354 50.3373 71.7367 50.7744 71.2268 53.1055C70.7168 55.3638 69.5513 58.8605 69.4784 62.6486C69.4784 62.6486 65.7632 59.0062 61.4652 59.6618C57.1672 60.3175 52.2864 59.7347 48.5711 51.0658C48.5711 51.0658 50.1738 56.8936 52.7963 58.4963C52.7963 58.4963 50.8294 63.887 45.8758 58.642C45.8758 58.642 47.1142 60.9731 48.4983 61.483C48.4983 61.483 47.0413 64.0327 43.1076 64.3241C43.1076 64.3241 45.6572 65.0526 49.4453 62.2115C53.1606 59.3704 56.0016 60.536 56.0016 60.536C56.0016 60.536 60.4453 60.536 62.4851 60.3903C64.5248 60.2446 69.5513 64.7612 69.3327 66.8737C69.3327 66.8737 65.1804 68.2578 62.995 71.8274C60.8824 75.3969 57.24 72.993 57.24 72.993C57.24 72.993 53.2334 71.6088 49.5182 74.1585C45.8029 76.7082 37.4255 76.5625 35.0215 73.5029C35.0215 73.5029 36.5513 77.2181 44.7102 76.1982C52.7963 75.2512 51.7036 71.6817 59.1341 75.0327C59.1341 75.0327 59.1341 76.9996 55.8559 79.0393C52.5778 81.0062 53.3791 83.1916 52.3592 84.43C51.3394 85.6684 50.6109 86.9797 48.4255 87.8539C46.24 88.7281 45.0745 91.4963 45.0745 91.4963C45.0745 91.4963 47.1142 88.3638 50.7566 87.7082C50.7566 87.7082 53.3791 86.2512 54.1076 82.0989C54.1076 82.0989 57.1672 78.3108 59.8625 78.0923C59.8625 78.0923 61.4652 80.9333 59.9354 84.1386C58.4056 87.3439 59.4983 88.3638 59.4983 88.3638C59.4983 88.3638 59.4254 85.3771 61.3195 82.6817C61.3195 82.6817 62.048 80.9333 60.7367 76.781C60.7367 76.781 60.7367 75.834 61.4652 75.1055C62.1937 74.3771 66.7831 67.5294 69.8427 69.5691C69.8427 69.5691 71.1539 70.0062 71.7367 72.4102C72.3195 74.8141 72.8294 76.1254 72.8294 76.1254C72.8294 76.1254 71.2268 75.7612 70.2798 76.6353C70.2798 76.6353 72.0281 76.2711 75.4519 78.3837C75.4519 78.3837 77.2731 79.1122 78.4387 79.5492C79.6043 79.9863 81.5712 81.5161 82.2268 82.0261C82.8824 82.6088 83.3923 82.6088 83.4652 83.0459C83.6109 83.483 83.6837 83.4102 83.6837 84.2843C83.6837 85.1585 83.3195 85.3042 83.6837 86.1784C84.048 86.9797 83.9751 86.9797 84.4851 87.6353C84.995 88.291 86.5248 89.9665 86.3063 92.5161C86.3063 92.5161 86.889 92.079 87.3261 91.4234C87.3261 91.4234 90.0943 95.5757 91.4056 98.8539C92.7169 102.132 93.2996 105.41 92.8625 108.178C92.4255 110.874 90.3129 113.933 90.3129 113.933C90.3129 113.933 89.2201 114.88 89.6572 117.357C89.8029 118.013 89.8758 118.668 89.8758 119.397H91.9155C91.9155 118.668 92.0612 118.159 92.2069 117.649Z" fill="white"/>
<path d="M0 119.179C59.8808 118.815 127.119 118.815 187 119.179C127.046 119.544 59.8808 119.544 0 119.179Z" fill="#5EA087"/>
<path d="M0 147.299C59.8808 146.934 127.119 146.934 187 147.299C127.046 147.736 59.8808 147.663 0 147.299Z" fill="#5EA087"/>
<path d="M26.2976 154.438V159.537H25.7148L22.6552 155.749V159.537H21.9268V154.438H22.5095L25.5691 158.226V154.438H26.2976Z" fill="#5EA087"/>
<path d="M29.139 159.391C28.8476 159.245 28.5562 158.954 28.4105 158.663C28.2648 158.371 28.1191 158.007 28.1191 157.643C28.1191 157.278 28.192 156.914 28.4105 156.623C28.6291 156.331 28.8476 156.113 29.139 155.894C29.4304 155.676 29.7946 155.676 30.1589 155.676C30.5231 155.676 30.8874 155.749 31.1787 155.894C31.4701 156.04 31.6887 156.331 31.9072 156.623C32.1258 156.914 32.1986 157.278 32.1986 157.643C32.1986 158.007 32.1258 158.371 31.9072 158.663C31.6887 158.954 31.4701 159.172 31.1787 159.391C30.8874 159.61 30.5231 159.682 30.1589 159.682C29.7946 159.682 29.4304 159.537 29.139 159.391ZM30.8145 158.808C31.033 158.663 31.1787 158.517 31.2516 158.298C31.3973 158.08 31.3973 157.861 31.3973 157.57C31.3973 157.278 31.3244 157.06 31.2516 156.841C31.1059 156.623 30.9602 156.477 30.8145 156.331C30.596 156.186 30.3774 156.186 30.1589 156.186C29.9403 156.186 29.7218 156.259 29.5032 156.331C29.2847 156.477 29.139 156.623 29.0662 156.841C28.9205 157.06 28.9205 157.278 28.9205 157.57C28.9205 157.861 28.9933 158.08 29.0662 158.298C29.2119 158.517 29.3575 158.663 29.5032 158.808C29.7218 158.954 29.9403 158.954 30.1589 158.954C30.3774 158.954 30.596 158.954 30.8145 158.808Z" fill="#5EA087"/>
<path d="M37.5164 155.674V159.535H36.8608V158.953C36.7151 159.171 36.4965 159.317 36.278 159.39C36.0595 159.535 35.7681 159.535 35.5495 159.535C35.0396 159.535 34.6025 159.39 34.3111 159.098C34.0197 158.807 33.874 158.37 33.874 157.86V155.602H34.6025V157.787C34.6025 158.151 34.6754 158.443 34.8939 158.661C35.0396 158.88 35.331 158.953 35.6952 158.953C36.0595 158.953 36.3508 158.807 36.5694 158.588C36.7879 158.37 36.8608 158.078 36.8608 157.641V155.602H37.5164V155.674Z" fill="#5EA087"/>
<path d="M40.7945 155.821C41.013 155.676 41.3044 155.676 41.6686 155.676V156.331C41.5958 156.331 41.5958 156.331 41.5229 156.331C41.1587 156.331 40.8673 156.477 40.6488 156.696C40.4302 156.914 40.3574 157.278 40.3574 157.643V159.61H39.6289V155.749H40.2845V156.404C40.3574 156.113 40.5031 155.967 40.7945 155.821Z" fill="#5EA087"/>
<path d="M43.2717 154.801C43.1988 154.728 43.126 154.582 43.126 154.509C43.126 154.364 43.1988 154.291 43.2717 154.218C43.3445 154.145 43.4902 154.072 43.6359 154.072C43.7816 154.072 43.8545 154.145 44.0002 154.218C44.1459 154.291 44.1459 154.437 44.1459 154.509C44.1459 154.655 44.073 154.728 44.0002 154.874C43.9273 155.019 43.7816 155.019 43.6359 155.019C43.4902 155.019 43.3445 154.874 43.2717 154.801ZM43.2717 155.675H44.0002V159.536H43.2717V155.675Z" fill="#5EA087"/>
<path d="M46.1849 159.461C45.8935 159.388 45.675 159.243 45.5293 159.17L45.8207 158.587C45.9664 158.733 46.1849 158.806 46.4763 158.879C46.7677 158.951 46.9863 159.024 47.2048 159.024C47.7876 159.024 48.1518 158.879 48.1518 158.514C48.1518 158.369 48.079 158.296 48.0061 158.223C47.9333 158.15 47.7876 158.077 47.7147 158.077C47.6419 158.077 47.4233 158.004 47.2048 158.004C46.9134 157.932 46.622 157.932 46.4763 157.859C46.2578 157.786 46.1121 157.713 45.9664 157.567C45.8207 157.422 45.7478 157.203 45.7478 156.912C45.7478 156.547 45.8935 156.256 46.1849 156.037C46.4763 155.819 46.8406 155.746 47.3505 155.746C47.6419 155.746 47.8604 155.746 48.1518 155.819C48.4432 155.892 48.5889 155.965 48.8074 156.11L48.5161 156.693C48.2247 156.475 47.8604 156.402 47.4233 156.402C47.132 156.402 46.9134 156.475 46.7677 156.547C46.622 156.62 46.5492 156.766 46.5492 156.912C46.5492 157.057 46.622 157.13 46.6949 157.203C46.7677 157.276 46.9134 157.349 46.9863 157.349C47.1319 157.349 47.2776 157.422 47.4962 157.494C47.7876 157.567 48.079 157.64 48.2247 157.64C48.3704 157.64 48.5889 157.786 48.7346 157.932C48.8803 158.077 48.9531 158.296 48.9531 158.514C48.9531 158.879 48.8074 159.17 48.5161 159.388C48.2247 159.607 47.7876 159.68 47.2776 159.68C46.8406 159.607 46.4763 159.607 46.1849 159.461Z" fill="#5EA087"/>
<path d="M53.6889 156.112C53.9803 156.403 54.126 156.84 54.126 157.35V159.609H53.3975V157.423C53.3975 157.059 53.3246 156.768 53.1061 156.549C52.9604 156.331 52.669 156.258 52.3048 156.258C51.9405 156.258 51.6491 156.403 51.4306 156.622C51.2121 156.84 51.0664 157.132 51.0664 157.569V159.536H50.3379V154.072H51.0664V156.185C51.2121 155.966 51.4306 155.821 51.6492 155.748C51.8677 155.675 52.1591 155.602 52.4505 155.602C52.9604 155.675 53.3975 155.821 53.6889 156.112Z" fill="#5EA087"/>
<path d="M56.1652 154.801C56.0924 154.728 56.0195 154.582 56.0195 154.509C56.0195 154.364 56.0924 154.291 56.1652 154.218C56.2381 154.145 56.3838 154.072 56.5295 154.072C56.6752 154.072 56.748 154.145 56.8937 154.218C57.0394 154.291 57.0394 154.437 57.0394 154.509C57.0394 154.655 56.9665 154.728 56.8937 154.874C56.8209 155.019 56.6752 155.019 56.5295 155.019C56.3838 155.019 56.2381 154.874 56.1652 154.801ZM56.0924 155.675H56.8208V159.536H56.0924V155.675Z" fill="#5EA087"/>
<path d="M62.1391 156.113C62.4305 156.404 62.5762 156.841 62.5762 157.351V159.61H61.8477V157.424C61.8477 157.06 61.7749 156.769 61.5563 156.55C61.4106 156.331 61.1192 156.259 60.755 156.259C60.3907 156.259 60.0993 156.404 59.8808 156.623C59.6623 156.841 59.5166 157.133 59.5166 157.57V159.537H58.7881V155.676H59.4437V156.259C59.5894 156.04 59.808 155.894 60.0265 155.821C60.245 155.749 60.5364 155.676 60.8278 155.676C61.4835 155.676 61.8477 155.821 62.1391 156.113Z" fill="#5EA087"/>
<path d="M68.3301 155.676V159.027C68.3301 159.682 68.1844 160.192 67.8201 160.557C67.4559 160.848 66.946 161.067 66.2903 161.067C65.9261 161.067 65.5618 160.994 65.2704 160.921C64.9062 160.848 64.6877 160.702 64.4691 160.484L64.8334 159.974C64.9791 160.12 65.2705 160.265 65.489 160.338C65.7075 160.411 65.9989 160.484 66.2903 160.484C66.7274 160.484 67.0917 160.411 67.3102 160.192C67.5287 159.974 67.6016 159.682 67.6016 159.245V158.954C67.4559 159.172 67.2374 159.318 67.0188 159.391C66.8003 159.464 66.5089 159.537 66.2175 159.537C65.8532 159.537 65.489 159.464 65.1976 159.318C64.9062 159.172 64.6877 158.954 64.4691 158.663C64.3234 158.371 64.1777 158.08 64.1777 157.716C64.1777 157.351 64.2506 157.06 64.4691 156.768C64.6148 156.477 64.9062 156.259 65.1976 156.113C65.489 155.967 65.8532 155.894 66.2175 155.894C66.5089 155.894 66.8003 155.967 67.0188 156.04C67.2374 156.113 67.4559 156.331 67.6016 156.55V155.967H68.3301V155.676ZM67.0188 158.663C67.2374 158.59 67.383 158.371 67.5287 158.225C67.6744 158.08 67.6744 157.788 67.6744 157.57C67.6744 157.206 67.5287 156.914 67.3102 156.623C67.0917 156.404 66.7274 156.259 66.3632 156.259C65.9989 156.259 65.6347 156.404 65.4162 156.623C65.1976 156.841 65.0519 157.133 65.0519 157.57C65.0519 157.788 65.1248 158.007 65.1976 158.225C65.2705 158.444 65.489 158.59 65.7075 158.663C65.9261 158.735 66.1446 158.808 66.3632 158.808C66.5817 158.808 66.8003 158.735 67.0188 158.663Z" fill="#5EA087"/>
<path d="M77.655 154.438V159.537H77.0723L74.0127 155.749V159.537H73.2842V154.438H73.867L76.9266 158.226V154.438H77.655Z" fill="#5EA087"/>
<path d="M82.4627 156.04C82.7541 156.331 82.8998 156.696 82.8998 157.206V159.537H82.2442V159.1C82.0985 159.245 81.9528 159.391 81.7343 159.537C81.5157 159.61 81.2243 159.682 80.9329 159.682C80.4958 159.682 80.1316 159.61 79.9131 159.391C79.6945 159.172 79.5488 158.881 79.5488 158.59C79.5488 158.225 79.6945 158.007 79.9131 157.788C80.1316 157.57 80.5687 157.497 81.0786 157.497H82.1713V157.351C82.1713 157.06 82.0985 156.841 81.88 156.623C81.7343 156.477 81.4429 156.404 81.0786 156.404C80.8601 156.404 80.6416 156.477 80.423 156.55C80.2045 156.623 79.9859 156.696 79.8402 156.841L79.6217 156.186C79.8402 156.04 80.0588 155.894 80.3502 155.821C80.6415 155.749 80.9329 155.676 81.2243 155.676C81.7343 155.676 82.1713 155.821 82.4627 156.04ZM81.7343 158.881C81.9528 158.735 82.0985 158.59 82.1713 158.371V157.861H81.0786C80.4959 157.861 80.2045 158.08 80.2045 158.444C80.2045 158.663 80.2773 158.808 80.423 158.881C80.5687 158.954 80.7872 159.027 81.0786 159.027C81.2972 159.1 81.5157 159.027 81.7343 158.881Z" fill="#5EA087"/>
<path d="M87.1254 159.317C87.0526 159.39 86.9069 159.462 86.7612 159.535C86.6155 159.608 86.4698 159.608 86.3241 159.608C85.9599 159.608 85.5956 159.535 85.4499 159.317C85.3042 159.098 85.1586 158.807 85.1586 158.443V156.33H84.5029V155.747H85.1586V154.873H85.887V155.747H86.9797V156.33H85.887V158.443C85.887 158.661 85.9599 158.807 86.0327 158.952C86.1056 159.098 86.3241 159.098 86.4698 159.098C86.6883 159.098 86.8341 159.025 87.0526 158.88L87.1254 159.317Z" fill="#5EA087"/>
<path d="M92.2967 155.674V159.535H91.6411V158.953C91.4954 159.171 91.2768 159.317 91.0583 159.39C90.8397 159.535 90.5483 159.535 90.3298 159.535C89.8199 159.535 89.3828 159.39 89.0914 159.098C88.8 158.807 88.6543 158.37 88.6543 157.86V155.602H89.3828V157.787C89.3828 158.151 89.4556 158.443 89.6742 158.661C89.8199 158.88 90.1113 158.953 90.4755 158.953C90.8397 158.953 91.1311 158.807 91.3497 158.588C91.5682 158.37 91.6411 158.078 91.6411 157.641V155.602H92.2967V155.674Z" fill="#5EA087"/>
<path d="M95.5757 155.821C95.7943 155.676 96.0857 155.676 96.4499 155.676V156.331C96.3771 156.331 96.377 156.331 96.3042 156.331C95.94 156.331 95.6486 156.477 95.43 156.696C95.2115 156.914 95.1386 157.278 95.1386 157.643V159.61H94.4102V155.749H95.0658V156.404C95.1387 156.113 95.3572 155.967 95.5757 155.821Z" fill="#5EA087"/>
<path d="M101.476 157.86H98.3433C98.4162 158.224 98.5618 158.443 98.7804 158.661C99.0718 158.88 99.3632 158.953 99.7274 158.953C100.165 158.953 100.529 158.807 100.82 158.515L101.184 158.953C101.039 159.171 100.82 159.317 100.529 159.39C100.237 159.462 99.946 159.535 99.6546 159.535C99.2175 159.535 98.8532 159.462 98.5619 159.317C98.2705 159.171 97.9791 158.88 97.8334 158.588C97.6877 158.297 97.542 157.933 97.542 157.568C97.542 157.204 97.6148 156.84 97.7605 156.549C97.9062 156.257 98.1248 156.039 98.489 155.82C98.8532 155.602 99.1446 155.602 99.5089 155.602C99.8731 155.602 100.237 155.674 100.529 155.82C100.82 155.966 101.039 156.257 101.184 156.549C101.33 156.84 101.403 157.204 101.403 157.568C101.476 157.714 101.476 157.787 101.476 157.86ZM98.7804 156.549C98.5618 156.767 98.4162 156.986 98.4162 157.35H100.893C100.82 157.059 100.747 156.767 100.529 156.549C100.31 156.33 100.019 156.257 99.6546 156.257C99.2903 156.257 98.9989 156.33 98.7804 156.549Z" fill="#5EA087"/>
<path d="M103.735 158.736C103.808 158.808 103.881 158.954 103.881 159.1C103.881 159.173 103.881 159.245 103.881 159.318C103.881 159.391 103.808 159.464 103.808 159.61L103.444 160.63H102.934L103.225 159.537C103.152 159.537 103.079 159.464 103.006 159.391C102.934 159.318 102.934 159.245 102.934 159.1C102.934 158.954 103.006 158.808 103.079 158.736C103.152 158.663 103.298 158.59 103.444 158.59C103.516 158.59 103.662 158.663 103.735 158.736Z" fill="#5EA087"/>
<path d="M112.112 158.953V159.609H108.396V154.51H112.039V155.165H109.125V156.768H111.675V157.424H109.125V159.099H112.112V158.953Z" fill="#5EA087"/>
<path d="M113.933 154.145H114.661V159.608H113.933V154.145Z" fill="#5EA087"/>
<path d="M120.198 157.86H117.066C117.139 158.224 117.285 158.443 117.503 158.661C117.794 158.88 118.086 158.953 118.45 158.953C118.887 158.953 119.251 158.807 119.543 158.515L119.907 158.953C119.761 159.171 119.543 159.317 119.251 159.39C118.96 159.462 118.669 159.535 118.377 159.535C117.94 159.535 117.576 159.462 117.285 159.317C116.993 159.171 116.702 158.88 116.556 158.588C116.41 158.297 116.265 157.933 116.265 157.568C116.265 157.204 116.338 156.84 116.483 156.549C116.629 156.257 116.847 156.039 117.212 155.82C117.576 155.602 117.867 155.602 118.232 155.602C118.596 155.602 118.96 155.674 119.251 155.82C119.543 155.966 119.761 156.257 119.907 156.549C120.053 156.84 120.126 157.204 120.126 157.568C120.198 157.714 120.198 157.787 120.198 157.86ZM117.43 156.549C117.212 156.767 117.066 156.986 117.066 157.35H119.543C119.47 157.059 119.397 156.767 119.179 156.549C118.96 156.33 118.669 156.257 118.304 156.257C117.94 156.257 117.722 156.33 117.43 156.549Z" fill="#5EA087"/>
<path d="M125.297 155.676L123.622 159.537H122.893L121.218 155.676H121.946L123.257 158.808L124.642 155.676H125.297Z" fill="#5EA087"/>
<path d="M129.231 156.039C129.523 156.33 129.668 156.695 129.668 157.204V159.536H129.013V159.099C128.867 159.244 128.721 159.39 128.503 159.536C128.284 159.608 127.993 159.681 127.701 159.681C127.264 159.681 126.9 159.608 126.682 159.39C126.463 159.171 126.317 158.88 126.317 158.589C126.317 158.224 126.463 158.006 126.682 157.787C126.9 157.569 127.337 157.496 127.847 157.496H128.94V157.35C128.94 157.059 128.867 156.84 128.648 156.622C128.503 156.476 128.211 156.403 127.847 156.403C127.629 156.403 127.41 156.476 127.192 156.549C126.973 156.622 126.754 156.695 126.609 156.84L126.317 156.33C126.536 156.185 126.754 156.039 127.046 155.966C127.337 155.893 127.629 155.82 127.92 155.82C128.503 155.675 128.94 155.82 129.231 156.039ZM128.503 158.88C128.721 158.734 128.867 158.589 128.94 158.37V157.86H127.847C127.264 157.86 126.973 158.079 126.973 158.443C126.973 158.661 127.046 158.807 127.192 158.88C127.337 158.953 127.556 159.026 127.847 159.026C128.139 159.026 128.284 159.026 128.503 158.88Z" fill="#5EA087"/>
<path d="M133.821 159.317C133.748 159.39 133.602 159.462 133.457 159.535C133.311 159.608 133.165 159.608 133.019 159.608C132.655 159.608 132.291 159.535 132.145 159.317C132 159.098 131.854 158.807 131.854 158.443V156.33H131.198V155.747H131.854V154.873H132.582V155.747H133.675V156.33H132.582V158.443C132.582 158.661 132.655 158.807 132.728 158.952C132.801 159.098 133.019 159.098 133.165 159.098C133.384 159.098 133.529 159.025 133.748 158.88L133.821 159.317Z" fill="#5EA087"/>
<path d="M135.423 154.801C135.35 154.728 135.277 154.582 135.277 154.509C135.277 154.364 135.35 154.291 135.423 154.218C135.496 154.145 135.642 154.072 135.787 154.072C135.933 154.072 136.006 154.145 136.152 154.218C136.297 154.291 136.297 154.437 136.297 154.509C136.297 154.655 136.224 154.728 136.152 154.874C136.079 155.019 135.933 155.019 135.787 155.019C135.642 155.019 135.569 154.874 135.423 154.801ZM135.423 155.675H136.152V159.536H135.423V155.675Z" fill="#5EA087"/>
<path d="M141.47 156.113C141.762 156.404 141.907 156.841 141.907 157.351V159.61H141.179V157.424C141.179 157.06 141.106 156.769 140.887 156.55C140.742 156.331 140.45 156.259 140.086 156.259C139.722 156.259 139.43 156.404 139.212 156.623C138.993 156.841 138.848 157.133 138.848 157.57V159.537H138.119V155.676H138.775V156.259C138.92 156.04 139.139 155.894 139.358 155.821C139.576 155.749 139.867 155.676 140.159 155.676C140.742 155.676 141.179 155.821 141.47 156.113Z" fill="#5EA087"/>
<path d="M147.662 155.676V159.027C147.662 159.682 147.516 160.192 147.152 160.557C146.788 160.848 146.278 161.067 145.622 161.067C145.258 161.067 144.894 160.994 144.602 160.921C144.238 160.848 144.02 160.702 143.801 160.484L144.165 159.974C144.311 160.12 144.602 160.265 144.821 160.338C145.04 160.411 145.331 160.484 145.622 160.484C146.059 160.484 146.424 160.411 146.642 160.192C146.861 159.974 146.934 159.682 146.934 159.245V158.954C146.788 159.172 146.569 159.318 146.351 159.391C146.132 159.464 145.841 159.537 145.549 159.537C145.185 159.537 144.821 159.464 144.53 159.318C144.238 159.172 144.02 158.954 143.801 158.663C143.583 158.371 143.51 158.08 143.51 157.716C143.51 157.351 143.583 157.06 143.801 156.768C143.947 156.477 144.238 156.259 144.53 156.113C144.821 155.967 145.185 155.894 145.549 155.894C145.841 155.894 146.132 155.967 146.351 156.04C146.569 156.113 146.788 156.331 146.934 156.55V155.967H147.662V155.676ZM146.351 158.663C146.569 158.59 146.715 158.371 146.861 158.225C147.006 158.08 147.006 157.788 147.006 157.57C147.006 157.206 146.861 156.914 146.642 156.623C146.424 156.331 146.059 156.259 145.695 156.259C145.331 156.259 144.967 156.404 144.748 156.623C144.53 156.841 144.384 157.133 144.384 157.57C144.384 157.788 144.457 158.007 144.53 158.225C144.602 158.444 144.821 158.59 145.04 158.663C145.258 158.735 145.477 158.808 145.695 158.808C145.914 158.808 146.132 158.735 146.351 158.663Z" fill="#5EA087"/>
<path d="M152.396 154.145H153.125V159.608H152.396V154.145Z" fill="#5EA087"/>
<path d="M155.237 154.801C155.165 154.728 155.092 154.582 155.092 154.509C155.092 154.364 155.165 154.291 155.237 154.218C155.31 154.145 155.456 154.072 155.602 154.072C155.747 154.072 155.82 154.145 155.966 154.218C156.112 154.291 156.112 154.437 156.112 154.509C156.112 154.655 156.039 154.728 155.966 154.874C155.893 155.019 155.747 155.019 155.602 155.019C155.456 155.019 155.31 154.874 155.237 154.801ZM155.237 155.675H155.966V159.536H155.237V155.675Z" fill="#5EA087"/>
<path d="M158.735 155.384V155.748H159.827V156.331H158.735V159.609H158.006V156.331H157.351V155.748H158.006V155.384C158.006 155.019 158.152 154.728 158.37 154.437C158.589 154.218 158.88 154.072 159.317 154.072C159.463 154.072 159.609 154.072 159.755 154.145C159.9 154.218 159.973 154.218 160.119 154.291L159.9 154.801C159.755 154.655 159.536 154.582 159.39 154.582C158.953 154.655 158.735 154.874 158.735 155.384Z" fill="#5EA087"/>
<path d="M164.708 157.86H161.576C161.649 158.224 161.794 158.443 162.013 158.661C162.304 158.88 162.596 158.953 162.96 158.953C163.397 158.953 163.761 158.807 164.053 158.515L164.417 158.953C164.271 159.171 164.053 159.317 163.761 159.39C163.47 159.462 163.178 159.535 162.887 159.535C162.45 159.535 162.086 159.462 161.794 159.317C161.503 159.171 161.211 158.88 161.066 158.588C160.92 158.297 160.774 157.933 160.774 157.568C160.774 157.204 160.847 156.84 160.993 156.549C161.139 156.257 161.357 156.039 161.721 155.82C162.086 155.602 162.377 155.602 162.741 155.602C163.106 155.602 163.47 155.674 163.761 155.82C164.053 155.966 164.271 156.257 164.417 156.549C164.562 156.84 164.635 157.204 164.635 157.568C164.708 157.714 164.708 157.787 164.708 157.86ZM162.013 156.549C161.794 156.767 161.649 156.986 161.649 157.35H164.125C164.053 157.059 163.98 156.767 163.761 156.549C163.543 156.33 163.251 156.257 162.887 156.257C162.523 156.257 162.231 156.33 162.013 156.549Z" fill="#5EA087"/>
</svg>
